<svg xmlns="http://www.w3.org/2000/svg" id="Calque_1" data-name="Calque 1" viewBox="0 0 624.63 624.72"><defs><style>.cls-2{fill:#dededd}.cls-3{fill:#3c1d1b}.cls-4{fill:#e9b1b5}.cls-5{fill:#1e1e1c}.cls-6{fill:#6d191e}.cls-8{fill:#fefefe}.cls-9{fill:#ededed}.cls-10{fill:#040303}.cls-11{fill:#fdfdfd}.cls-12{fill:#bd1622}.cls-13{fill:#201f1d}.cls-14{fill:#090707}</style></defs><path fill="#be1622" d="M480.72 733.65H473c-.88-.86-2-.46-3-.46H283.37V110.61h623.99c0 .88.07 1.75.07 2.63v617.05c0 1-.05 1.92-.08 2.87H481.73a1 1 0 0 0-1.01.49zm-4.31-87a120.46 120.46 0 0 0 12.88 6.26A238.09 238.09 0 0 0 524.85 666a122.79 122.79 0 0 0 13.89 3.39c.12.19.27.28.49.17a1.37 1.37 0 0 0 1 .2 37.21 37.21 0 0 0 5.81 1.29 162.12 162.12 0 0 0 18.61 2.76 9.11 9.11 0 0 0 1.14.3 246.64 246.64 0 0 0 27 1.61 209.63 209.63 0 0 0 22.27-.81 205.3 205.3 0 0 0 25.44-3.27 1.43 1.43 0 0 0 1.06-.24c.18.15.31.07.43-.1a15.28 15.28 0 0 0 1.66-.15 256.31 256.31 0 0 0 38.19-10.48 71.45 71.45 0 0 0 10.16-4.1 7.26 7.26 0 0 0 2.52-.75 246.48 246.48 0 0 0 25.6-12.55 256.21 256.21 0 0 0 67.9-55.34 248.79 248.79 0 0 0 39.19-61.46 251.68 251.68 0 0 0 22-93.67 243.73 243.73 0 0 0-.71-31.39 255 255 0 0 0-3.6-26.57 250.48 250.48 0 0 0-25-70.7 255.33 255.33 0 0 0-141.3-121 256.58 256.58 0 0 0-72.94-13.84 255.45 255.45 0 0 0-68.75 6.4 250.09 250.09 0 0 0-60.65 22.76 253.5 253.5 0 0 0-58.51 42.7A259 259 0 0 0 397 264.05a253.28 253.28 0 0 0-51.53 111.87 253.48 253.48 0 0 0-4.13 54.85c.46 9.43 1.17 18.8 2.46 28.15a249 249 0 0 0 9.52 41.51 246.16 246.16 0 0 0 20.9 47.57 252.7 252.7 0 0 0 36.52 49.18 243 243 0 0 0 32.91 29A178.3 178.3 0 0 0 461 637.75c.58.76 1.52 1.1 2.11 1.92a19.91 19.91 0 0 0 2.74 3c2.65 2.47 5.63 4.17 9.45 3.73a3.89 3.89 0 0 1 1.11.27z" transform="translate(-283.42 -109.05)"/><path d="M283.44 109.65c.1-.15-.24-.5.24-.49h622.08c.7 0 1.63-.55 2.16.45h-3.4z" class="cls-2" transform="translate(-283.42 -109.05)"/><path d="M283.44 109.65h623.95a.42.42 0 0 1 0 .42H283.44z" class="cls-3" transform="translate(-283.42 -109.05)"/><path d="M907.38 110.11a.42.42 0 0 0 0-.42h.53v621.84c0 .7.55 1.63-.45 2.16l-.08-.49c0-.95.08-1.91.08-2.87V113.34c0-.88-.05-1.75-.07-2.63-.02-.2-.01-.4-.01-.6z" class="cls-4" transform="translate(-283.42 -109.05)"/><path d="M907.38 110.11v.6H283.44v-.48H904z" class="cls-5" transform="translate(-283.42 -109.05)"/><path d="M907.36 733.16l.08.49H480.72a1 1 0 0 1 1-.48h425.64zm-623.92.01h186.63c1 0 2.09-.4 3 .46H285.63c-.73-.01-1.63.54-2.19-.46z" class="cls-6" transform="translate(-283.42 -109.05)"/><path fill="#010000" d="M461 637.75a178.3 178.3 0 0 1-17.3-11.62 243 243 0 0 1-32.91-29A252.7 252.7 0 0 1 374.22 548a246.16 246.16 0 0 1-20.88-47.55 249 249 0 0 1-9.52-41.51c-1.29-9.35-2-18.72-2.46-28.15a253.48 253.48 0 0 1 4.13-54.85A253.28 253.28 0 0 1 397 264.05a259 259 0 0 1 20.77-22.91 253.5 253.5 0 0 1 58.51-42.7A250.09 250.09 0 0 1 537 175.68a255.45 255.45 0 0 1 68.75-6.4 256.58 256.58 0 0 1 72.94 13.84 252.42 252.42 0 0 1 169.82 218.27 243.73 243.73 0 0 1 .71 31.39 251.68 251.68 0 0 1-22 93.67 248.79 248.79 0 0 1-39.19 61.46 256.21 256.21 0 0 1-67.9 55.34 246.48 246.48 0 0 1-25.6 12.55 7.26 7.26 0 0 1-2.52.75c-.22-9.29-1-18.53-1.84-27.77a47.15 47.15 0 0 0 8.35-4.09 2.86 2.86 0 0 1 .72 0c5 1.78 10.34 2.77 14.89 5.78a29.93 29.93 0 0 0 3 1.52c3 1.56 5.86.77 8.21-1.26a32.81 32.81 0 0 0 8.45-10.59 187.23 187.23 0 0 0 9.56-23.46 8.76 8.76 0 0 1 1.81-3.6c2.34-2.17 4.72-4.3 7-6.52a219.29 219.29 0 0 0 24-27.26c2.56-3.45 5.11-6.91 7.31-10.51a2.69 2.69 0 0 0-1.39-1.13c-5.43-3-10.86-6.08-16.32-9.06-1.38-.75-2.75-2.3-4.19-1.93s-2 2.34-3.06 3.53c-1.2 1.37-1.92 3.16-3.62 4.08.38-3.34.86-6.67 1.1-10 .34-4.79.45-9.59-1-14.27a.51.51 0 0 0-.24-.64 1.82 1.82 0 0 0-.27-1.29.45.45 0 0 0-.23-.57 9.86 9.86 0 0 0-1.24-3.72c0-.41-.29-.55-.67-.55a1 1 0 0 0-1-.44.9.9 0 0 0-1-.41h-.1a1.5 1.5 0 0 0-1.33-.5l-.47-.48c.68-.83 1.67-.17 2.45-.5h2.88c3.59-.3 5.66-2.5 5.74-6.09a44.07 44.07 0 0 0-.3-5.74 143.06 143.06 0 0 1-1.16-21.3c.14-3.35.24-6.71.19-10.07-.23-13.2-1.39-26.34-2.58-39.48a31.59 31.59 0 0 0-4.21-13.61 56.19 56.19 0 0 0-4.57-6.74c-6.6-8.1-14.71-14.4-23.57-19.81a22.53 22.53 0 0 0-6.22-2.42 45.76 45.76 0 0 0-11.43-1c1.25-.54 2.48-1.11 3.73-1.61q14.55-5.83 29.12-11.64c.57-.23 1.23-.32 1.6-.9 0-.55-.34-.9-.58-1.3q-13.65-23.68-27.43-47.2c-1.16-2-1.2-2-2.9-.55-7.47 6.38-14.9 12.8-22.4 19.14-2.37 2-4.52 4.28-7.23 5.86a1.93 1.93 0 0 1 0-.24 23.31 23.31 0 0 0-11.65-24c-.21-.12-.42-.25-.61-.38-1.5-1.06-1.69-1.83-.78-3.43a95.9 95.9 0 0 1 2.33-3.91 3.88 3.88 0 0 0 .21-3.86c-.73-1.74-2.07-3-3.11-4.52-.44-.65-1-1.2-1-2.1v-7c0-.44-.09-1.06.6-1.08 1 0 .92-.67.79-1.31a21.41 21.41 0 0 0-1.35-4.82c-1.52-3.3-3.73-5.77-7.64-6.05-.82-.06-1.13-.39-1.07-1.19.3-4.13-1.91-6.94-5-9.25a57.86 57.86 0 0 0-24.17-11c-15.93-3.07-31.94-4.55-48.15-2.94a147.4 147.4 0 0 0-27.94 5.32 34.46 34.46 0 0 0-10.22 5.14c-2.73 2-4.51 4.46-4.46 8a4.44 4.44 0 0 1-.62 3c-2.75-.76-4-.21-5.08 2.35a16.37 16.37 0 0 0-1.46 6.27c0 6.47-.22 12.95.6 19.39a6.46 6.46 0 0 1-1.73 5.5 24.3 24.3 0 0 1-2.14 1.91 110.69 110.69 0 0 0-12.9 12.16 15.3 15.3 0 0 0-3.56 6.43 16.75 16.75 0 0 0 3.38 15.29l-.53.58-33.66-28a6.25 6.25 0 0 0-1.67 2.26l-20.58 36c-2.26 4-4.53 7.91-6.76 11.88-.8 1.42-.76 1.45.67 2l.9.32 38.22 14.06a72 72 0 0 0-21.7 10.89c-9.47 7-17.19 15.47-22.27 26.19a14 14 0 0 0-1.29 3.83c-1.12 7.18-2.57 14.29-4.09 21.39-2.63 12.33-5.41 24.64-6.22 37.27a80.15 80.15 0 0 0 2 25.68 8.42 8.42 0 0 0 4.92 6.07c.48.59 1.2.49 1.84.62 0 1 .05 2 .07 3a14.09 14.09 0 0 0-5.46 10.9c-.15 2.53-.26 5.06-.39 7.59a63.5 63.5 0 0 1-4.48-6.21c-1-1.37-1-1.39-2.49-.51q-10.69 6.39-21.37 12.82c-1.78 1.08-1.78 1.13-.57 2.91a233.1 233.1 0 0 0 16.37 21.25 244.43 244.43 0 0 0 20.35 20.62 4 4 0 0 1 1.05 1.78 163.41 163.41 0 0 0 5.09 15.91c2.32 5.67 4.77 11.29 6.54 17.18a29.25 29.25 0 0 0 3.27 7.66c.4.46 1.03 1.01.4 1.68zm195.4-377.88a137.65 137.65 0 0 1 17.77 7.79 171.9 171.9 0 0 1 41.41 29.61c1.56 1.5 1.58 1.49 3.23 0l15.4-14.44a11.53 11.53 0 0 1 2.78-2.21 13.91 13.91 0 0 0 4.27 5c.56.45 1.06 1 1.58 1.47a117.91 117.91 0 0 1 21.36 27c1.18 2.07 1.24 2.06 3.29.88l18.48-10.7c.62-.36 1.23-.75 1.86-1.1s.79-.76.39-1.37l-.77-1.21a227.24 227.24 0 0 0-34.9-41.94 231 231 0 0 0-42.33-31.71A226 226 0 0 0 653 203.27a208.37 208.37 0 0 0-28.45-5.42c-5.16-.61-10.31-1.25-15.51-1.39-1.9-.05-2 0-2 1.76 0 5.92 0 11.84.05 17.76-5.78-.28-11.53-.95-17.33-.75-1.66.06-3.32 0-5 0 0-6.16.07-12.32.06-18.47 0-1.66-.07-1.76-1.83-1.64-3.26.21-6.52.55-9.78.83a205.68 205.68 0 0 0-28.35 4.58 227.57 227.57 0 0 0-122 74.77 240.47 240.47 0 0 0-18.71 25.5c-1.1 1.72-1.08 1.75.62 2.69 7.15 3.93 14.32 7.82 21.44 11.79 1.29.72 1.51.94 2.64-.68q2.38-3.45 4.91-6.81a182.39 182.39 0 0 1 16.93-19.89c2.35-2.36 5.2-4.23 6.72-7.37a4.19 4.19 0 0 1 .77.44q4.74 4.75 9.47 9.52c2 2 4.06 4.08 6.06 6.16.69.72 1.3.85 2 0 .21-.24.45-.45.68-.67A164.85 164.85 0 0 1 520 265.46a123.37 123.37 0 0 1 18-7.29v2.45l2.37-1.12a85.24 85.24 0 0 1 18.27-6.34 207.35 207.35 0 0 1 37.55-4.16 110.94 110.94 0 0 1 27.1 2.92c6.38 1.42 12.78 2.78 18.77 5.55a68.86 68.86 0 0 1 14.29 8.87zm-289 163.58a207.86 207.86 0 0 0 1 21.26c.65 6.52 1.51 13 2.71 19.44a218.83 218.83 0 0 0 11.19 39.35 238.67 238.67 0 0 0 11.22 24.64c.95 1.81 1 1.84 2.68.89q11.16-6.33 22.29-12.72c1.62-.93 1.6-1 .79-2.8-2.28-5.19-4.59-10.38-6.85-15.58a146.32 146.32 0 0 1-7.65-23.18c-.32-1.28 0-1.73 1.15-2 1.94-.48 3.85-1.07 5.77-1.6 4.31-1.2 8.63-2.37 12.93-3.6 1.71-.49 1.74-.6 1.45-2.36-.2-1.18-.45-2.35-.68-3.53a193.36 193.36 0 0 1-3.58-30.9 201.2 201.2 0 0 1 .36-22.77c.45-5.41 1-10.8 1.88-16.17q.84-5.32 2-10.59c.42-1.95.32-2.06-1.63-2.73s-3.94-1.31-5.91-2c-4.09-1.36-8.19-2.72-12.27-4.11-1.81-.61-1.81-.64-1.27-2.53.31-1.07.65-2.14.95-3.22 2.71-9.61 5.46-19.21 10.13-28.13.68-1.3.62-1.36-1-2.3q-10.71-6.13-21.45-12.25c-2.79-1.58-2.81-1.58-4.19 1.37a228.44 228.44 0 0 0-18.11 55.42 218 218 0 0 0-3.97 42.7zm454.73-.11c0-7.13-.31-14.22-.92-21.31q-.87-10.17-2.67-20.18a233.15 233.15 0 0 0-10.91-39.68c-2.13-5.77-4.49-11.46-7-17.08-.43-.95-.8-1.42-1.93-.82q-10.38 5.53-20.8 11c-.92.48-1.08 1-.61 1.91.34.63.57 1.32.85 2 2.59 5.93 5.27 11.83 7.34 18q2.15 6.36 4.19 12.75c.58 1.8.52 1.86-1.37 2.53l-.91.32-21.12 7.12c-1.93.65-1.92.67-1.48 2.69a193 193 0 0 1 4.13 49 216.76 216.76 0 0 1-4 31.33c-.6 3-.57 3 2.37 3.81q10.49 3 21 6c1.75.51 1.76.56 1.3 2.32a179.15 179.15 0 0 1-5.44 17.12c-2.8 7.66-6 15.16-9.34 22.6-.74 1.65-1.09 1.58.93 2.67 1.62.87 3.21 1.79 4.82 2.69l14 7.8c1.67.92 1.68.9 2.59-.86.22-.43.44-.85.65-1.29a253.54 253.54 0 0 0 13.69-34.24 224.18 224.18 0 0 0 10.58-68.2z" transform="translate(-283.42 -109.05)"/><path d="M436.93 542.67c.13-2.53.24-5.06.39-7.59a14.09 14.09 0 0 1 5.46-10.9 26 26 0 0 1 5.75-2.28c6.61-1.6 13.29-1.63 20-1.14 5.81.43 11.62.85 17.45 1 4.15.1 8.3.16 12.45.39 4.57.25 8.16 2.09 9.81 6.69.4 1.37.81 2.74 1.21 4.11a16.58 16.58 0 0 0 .22 2.84 22.8 22.8 0 0 1 .63 7.31c-.07 0-.18.08-.18.11a2.22 2.22 0 0 0 .09.37c.17 1-.2 2 .23 3a.55.55 0 0 0-.12.24c-1.05 1.3-.63 2.9-.91 4.36-.73 3.82-1.58 7.61-2.29 11.44a2.27 2.27 0 0 1-1.34 1.79 5 5 0 0 0-2.44 1.71c2.83-.86 4.89-1.94 4.81-5a4.46 4.46 0 0 1 .24-.92 119.38 119.38 0 0 0 2.18-13.2 2.25 2.25 0 0 0 .44-.14c1.3 0 2.45.71 3.7.91 6.62 1.07 13 3.06 19.51 4.72 5.47 1.4 10.91 3 16.47 4.47.12-1.23.17-2.34.34-3.43a96.33 96.33 0 0 1 7.32-23.45 21.5 21.5 0 0 1 3.53-5.4 9.56 9.56 0 0 1 4.84-3.36 21.85 21.85 0 0 1 5.65-.35c.31.62.9.49 1.42.54a2.57 2.57 0 0 0 .57.38.43.43 0 0 0 .59-.2 4.53 4.53 0 0 0-.6-.26 2.42 2.42 0 0 0-.47 0c-.38-.55-1-.44-1.5-.44-.39-.52-1-.43-1.51-.44h-4.25a2.07 2.07 0 0 1-1-.77c.15-.18.27-.43.46-.54a93.89 93.89 0 0 1 11.75-6.36 36.88 36.88 0 0 1 15.17-3.39c2.06.05 4.1.16 6.17.37a72.76 72.76 0 0 1 14.83 3.37c4.77 1.53 9.36 3.52 14 5.39.1 5.21-2.24 9-6.91 11.34 1.73 2.53 3.44 4.83 4.9 7.27a4.14 4.14 0 0 0 2.71 2q11.63 3.24 23.23 6.57c6.6 1.9 13.21 3.65 20.17 3.59a16.54 16.54 0 0 1 5.42.88c.94.9 2.31.81 3.37 1.44 1.74.28 3 1.7 4.78 1.92a1.34 1.34 0 0 0 1.42 1A2.16 2.16 0 0 0 689 556a21 21 0 0 0 4.33 4.3c5.45 6.25 9.48 13.4 13 20.83s2.75 14.94-1.77 21.84c-5.79 8.85-14.29 13.12-24.67 14h-7.19a4.77 4.77 0 0 0-1.34-.47 32.2 32.2 0 0 1-9.31-1.89c-.29-.1-.73-.27-1 .34l3.43 1.07c2.67.82 5.48.86 8.2 1.37h7.09c1.4.49 2.82.93 4.19 1.5 1.8.74 3.77 1.07 5.37 2.27a56.19 56.19 0 0 0 .78 7.54c.81 9.24 1.62 18.48 1.84 27.77a71.45 71.45 0 0 1-10.16 4.1 256.31 256.31 0 0 1-38.19 10.48 15.28 15.28 0 0 1-1.66.15.4.4 0 0 0-.43.1 1.43 1.43 0 0 1-1.06.24 4.08 4.08 0 0 1-.47-2.54 25.35 25.35 0 0 0-.1-4.78c-.67-3.39-.49-6.82-.75-10.22-.28-3.63-.91-7.28-.61-11a1.29 1.29 0 0 0 0-.48c-.85-3.59-.44-7.28-.79-10.92s-.91-7.12-.61-10.72a2.59 2.59 0 0 0 0-.48c-.66-3.69-.5-7.44-.88-11.15a28.71 28.71 0 0 0-.39-4.51 6.37 6.37 0 0 1 .15-3.6l2.56.93c.44.77 1.27 1 2 1.38l1.41.54a1.27 1.27 0 0 0 .93.49 4 4 0 0 0 2.42 1.44 3.88 3.88 0 0 0 2.39 1.44 1.91 1.91 0 0 0 1.44 1 4.12 4.12 0 0 0 2.4 1.45 7.32 7.32 0 0 0 3.36 1.92c1.76 1.44 2.06 1.57 3.86 1.51-1.44-.58-2.45-1.4-3.72-1.67a6.81 6.81 0 0 0-3.36-1.92 3.75 3.75 0 0 0-2.4-1.44 1.9 1.9 0 0 0-1.43-1 4.16 4.16 0 0 0-2.4-1.44 3.91 3.91 0 0 0-2.42-1.42 1.25 1.25 0 0 0-.94-.5 16.09 16.09 0 0 0-3.36-1.93c-1-.84-1.84-1.78-3.24-1.83a17.64 17.64 0 0 0-4.52-2.58.75.75 0 0 0-.77-.3c-1.9-1.62-4.26-2.42-6.43-3.54a.89.89 0 0 0-.82-.33 1.48 1.48 0 0 0-1-.53 3 3 0 0 0-1.29-1l-14.21-7.11a3.82 3.82 0 0 0-1.8-.51 1.12 1.12 0 0 0-1-.48c-.18-.12-.35-.23-.53-.33a2.11 2.11 0 0 0-.19.25l.6.21a1.18 1.18 0 0 0 1 .49l2.65 1.59c-.29.86-1.39.83-1.7 1.63a3.88 3.88 0 0 0-2.4 1.43 1.86 1.86 0 0 0-1.44 1 1.2 1.2 0 0 0-.94.5 1.78 1.78 0 0 0-1.47.94 1.22 1.22 0 0 0-.93.49 1.78 1.78 0 0 0-1.46 1l-.62.28c0 .06.09.16.15.17.28.05.44-.12.58-.33a1.78 1.78 0 0 0 1.47-.94 1.22 1.22 0 0 0 .94-.49 1.84 1.84 0 0 0 1.46-1 1.21 1.21 0 0 0 .94-.49 1.82 1.82 0 0 0 1.45-1 3.75 3.75 0 0 0 2.4-1.44c3-1.15 3-1.11 6.14.4 3.36 1.62 6.58 3.52 10.06 4.88l.5.47a62.5 62.5 0 0 1-.36 7.37c-.13 2.63-.48 5.24-.7 7.84a55 55 0 0 1-.47 6.42A73.19 73.19 0 0 0 620 623c-.23 2.52-.48 5.07-.7 7.59a46.93 46.93 0 0 1-.45 5.7 66.16 66.16 0 0 0-.76 7.81c-.24 2.52-.5 5.07-.7 7.6a54.08 54.08 0 0 1-.45 5.69c-.52 2.66-.49 5.37-.83 8-.4 3.14-.38 6.33-1 9.46a209.63 209.63 0 0 1-22.27.81 246.64 246.64 0 0 1-27-1.61 9.11 9.11 0 0 1-1.14-.3c0-1 .07-1.92.06-2.88-.13-8 .26-15.94-.44-23.91-.4-4.67.13-9.38-.43-14.09-.46-3.85 0-7.79-.53-11.68-.34-2.51.25-5.09-.34-7.62-.06-.24.23-.57.36-.86a3008.36 3008.36 0 0 1 6.71-3.84 6.65 6.65 0 0 0 3.37-1.92 3.73 3.73 0 0 0 2.39-1.44 6.7 6.7 0 0 0 3.37-1.92 3.73 3.73 0 0 0 2.39-1.44 3.65 3.65 0 0 0 2.4-1.44 20 20 0 0 0 5.26-2.9c.68-.44 1.52-.64 2-1.41a1.21 1.21 0 0 0 .94-.49 3.36 3.36 0 0 0 .64-.18c.23-.13.63-.3.4-.62s-.52 0-.74.15a5.17 5.17 0 0 0-.42.51 1.2 1.2 0 0 0-.94.5 3.86 3.86 0 0 0-2.46 1.47 11.48 11.48 0 0 0-4.76 2.84 3.85 3.85 0 0 0-2.4 1.44 3.66 3.66 0 0 0-2.38 1.45 5 5 0 0 0-3.37 1.91 3.65 3.65 0 0 0-2.39 1.45 5 5 0 0 0-3.37 1.91 6.58 6.58 0 0 0-3.36 1.92 6.5 6.5 0 0 0-3.35 1.93 3.32 3.32 0 0 0-1.57.46q-7 4.08-14.24 7.78c-2 1-3.86 2.19-5.78 3.3a1.09 1.09 0 0 0-.95.48 3 3 0 0 0-2.4 1c-.8.14-1.72-.29-2.38.5a3.31 3.31 0 0 0-2.9.93 1.08 1.08 0 0 0-1 .49 86.41 86.41 0 0 1-1.93 1l-.62.24c0 .06.08.16.14.17.26 0 .42-.13.55-.33a252.38 252.38 0 0 1 1.91-1 1.05 1.05 0 0 0 1-.47 4.66 4.66 0 0 0 2.87-1c.81-.11 1.73.31 2.41-.46a3.1 3.1 0 0 0 2.42-.95 1.12 1.12 0 0 0 1-.48c.52.07.91.3.91.89 0 2.46.33 5-.1 7.38-.66 3.71-.38 7.43-.7 11.14-.37 4.4-1 8.84-.63 13.3a1.93 1.93 0 0 1 0 .48c-.8 4.06-.28 8.22-.93 12.3a1.37 1.37 0 0 1-1-.2l-.49-.17a122.79 122.79 0 0 1-14.05-3.37 238.09 238.09 0 0 1-35.56-13.05q1.14-6.4 2.3-12.82a44.37 44.37 0 0 1 6.88-2 134.6 134.6 0 0 0 14.45-4.58 9.44 9.44 0 0 0-1.12-.44c-8.38-2-14.73-7.05-20-13.59a29.16 29.16 0 0 1-5.08-9.44 15.46 15.46 0 0 1 0-10.52c3.14-8.63 6.6-17.13 10.13-25.61a2.61 2.61 0 0 0 .48-1.89c-11.16 3.63-22.64 5.36-33.75 8.54a85.39 85.39 0 0 0-19.35 8.2c-.79 0-1.3 1-2.24.69-.3-1.56-.59-3.12-.9-4.68a200.92 200.92 0 0 1-3.66-28.49c-.23-4.55-.34-9.1-.5-13.65zm115.76 19.17l.47.48a1.41 1.41 0 0 0 1.74.82 2.12 2.12 0 0 0-1.66-.89.64.64 0 0 0-.48-.48 2.68 2.68 0 0 0-.15-.65c-.12-.24-.31-.63-.63-.41s0 .53.17.74a3.54 3.54 0 0 0 .54.39zm67.75-25a2.52 2.52 0 0 0-.56-.38.43.43 0 0 0-.59.21 6.25 6.25 0 0 0 .6.24 2.32 2.32 0 0 0 .46 0c.52.65 1.26.4 1.92.49a4.71 4.71 0 0 0 3.47.81 6.49 6.49 0 0 0-3.39-.92c-.51-.67-1.25-.41-1.91-.49zm-5.37-5.84a1.67 1.67 0 0 0-1.43 1c-2.49 1.08-5 1.86-7.66.57a2.44 2.44 0 0 0-.94 0 5 5 0 0 0-3.33-.95 4.91 4.91 0 0 0-3.34-1 5.34 5.34 0 0 0-3.43-.92 1.23 1.23 0 0 0-1.68-.3c.58.47 1.15.26 1.67.32a4.82 4.82 0 0 0 3.35 1 5.06 5.06 0 0 0 3.41.93 5.43 5.43 0 0 0 3.36.93 12.19 12.19 0 0 0 5.72 1.49 2.9 2.9 0 0 0 3.09.59c-1.39-.12-2.12-.71-3-.65.82-.85 2.26-.74 2.9-1.85a1.82 1.82 0 0 0 1.45-1 1.53 1.53 0 0 0 1.28-.95 1.41 1.41 0 0 0-1.42.79zm-91.64 30.28c-1.12.17-2.35-.42-3.36.48-1.59.07-3.2-.18-4.76.34 1.6 0 3.24.67 4.79-.3 1.12-.17 2.35.43 3.36-.48 1-.14 2 .38 2.87-.48a7.88 7.88 0 0 0 4.33-1 12.18 12.18 0 0 0 5.34-1.34 2.32 2.32 0 0 0 .46 0 6.25 6.25 0 0 0 .6-.24.42.42 0 0 0-.59-.21 2.52 2.52 0 0 0-.56.38 12.17 12.17 0 0 0-5.27 1.46 8.23 8.23 0 0 0-4.32 1c-.99.11-2.06-.43-2.89.42zm42.21 5.84a6.05 6.05 0 0 0 3.36 1.48 6.18 6.18 0 0 0 3.37 1.43 5.94 5.94 0 0 0 3.37 1.43 5.84 5.84 0 0 0 3.35 1.45 5.92 5.92 0 0 0 3.37 1.44 5.74 5.74 0 0 0 3.35 1.44 1.11 1.11 0 0 0 1 .48 6.05 6.05 0 0 0 3.37 1.44 1.1 1.1 0 0 0 .95.48 10 10 0 0 0 4.33 1.93 1.15 1.15 0 0 0 1 .47 12.51 12.51 0 0 0 5 2.17c-1.54-.94-3-2.09-4.86-2.29a1.15 1.15 0 0 0-.94-.5 9.8 9.8 0 0 0-4.34-1.9 1.1 1.1 0 0 0-.95-.49 5.87 5.87 0 0 0-3.37-1.43 1.11 1.11 0 0 0-1-.49 1015.53 1015.53 0 0 1-6.71-2.89 6.29 6.29 0 0 0-3.37-1.43 443.76 443.76 0 0 0-6.73-2.88 5.93 5.93 0 0 0-3.35-1.44 6 6 0 0 0-3.37-1.43c-.63-.44-1.17-1.16-2.15-.61a3.1 3.1 0 0 0 2 .75 6.06 6.06 0 0 0 3.32 1.42zm24-38.89a1.15 1.15 0 0 0 1.67.17c-.54-.35-1.07-.21-1.57-.29a10.79 10.79 0 0 0-4.82-1.42c-.35-.54-.91-.44-1.43-.49a8.71 8.71 0 0 0-4.08-1.55 6.68 6.68 0 0 0 4 1.65c.35.53.9.45 1.42.5a10.89 10.89 0 0 0 4.81 1.46zm28.3 1.22c.67 0 1.38.55 2.07-.16a2.35 2.35 0 0 0-2.07.19z" class="cls-8" transform="translate(-283.42 -109.05)"/><path d="M444.22 588.79a85.39 85.39 0 0 1 19.35-8.2c11.11-3.18 22.59-4.91 33.75-8.54a2.61 2.61 0 0 1-.48 1.89c-3.53 8.48-7 17-10.13 25.61a15.46 15.46 0 0 0 0 10.52 29.16 29.16 0 0 0 5.08 9.44c5.31 6.54 11.66 11.58 20 13.59a9.44 9.44 0 0 1 1.12.44 134.6 134.6 0 0 1-14.45 4.58 44.37 44.37 0 0 0-6.88 2 7.49 7.49 0 0 0-1.17.16c-4.63 1.41-8.91 3.66-13.37 5.48a1 1 0 0 0-.64.92 3.89 3.89 0 0 0-1.16-.27c-3.82.44-6.8-1.26-9.45-3.73a19.91 19.91 0 0 1-2.74-3c-.59-.82-1.53-1.16-2.11-1.92.68-.67 0-1.22-.26-1.67a29.25 29.25 0 0 1-3.27-7.66c-1.77-5.89-4.22-11.51-6.54-17.18a163.41 163.41 0 0 1-5.09-15.91 4 4 0 0 0-1.06-1.78c.52-.29.45-.75.34-1.2-.27-1.2-.55-2.36-.84-3.57z" class="cls-5" transform="translate(-283.42 -109.05)"/><path d="M635.48 600.2c1.4 0 2.29 1 3.24 1.83l-.14.17-2.56-.93a6.37 6.37 0 0 0-.15 3.6 28.71 28.71 0 0 1 .39 4.51c.38 3.71.22 7.46.88 11.15a2.59 2.59 0 0 1 0 .48c-.3 3.6.27 7.17.61 10.72s-.06 7.33.79 10.92a1.29 1.29 0 0 1 0 .48c-.3 3.67.33 7.32.61 11 .26 3.4.08 6.83.75 10.22a25.35 25.35 0 0 1 .1 4.78 4.08 4.08 0 0 0 .47 2.54 205.3 205.3 0 0 1-25.44 3.27c.61-3.13.59-6.32 1-9.46.34-2.68.31-5.39.83-8a54.08 54.08 0 0 0 .45-5.69c.2-2.53.46-5.08.7-7.6a66.16 66.16 0 0 1 .76-7.81 46.93 46.93 0 0 0 .45-5.7c.22-2.52.47-5.07.7-7.59a73.19 73.19 0 0 1 .76-7.81 55 55 0 0 0 .47-6.42c.22-2.6.57-5.21.7-7.84a62.5 62.5 0 0 0 .36-7.37l.66-.1a.89.89 0 0 1 .82.33c1.69 2 4.09 2.72 6.43 3.54a.75.75 0 0 1 .77.3c1.11 1.53 2.85 2.02 4.59 2.48zm-93.84 23.97c1.92-1.11 3.81-2.29 5.78-3.3q7.23-3.69 14.24-7.78a3.32 3.32 0 0 1 1.57-.46l.11.12c-.13.29-.42.62-.36.86.59 2.53 0 5.11.34 7.62.54 3.89.07 7.83.53 11.68.56 4.71 0 9.42.43 14.09.7 8 .31 15.94.44 23.91 0 1 0 1.92-.06 2.88a162.12 162.12 0 0 1-18.61-2.79 37.21 37.21 0 0 1-5.81-1.29c.65-4.08.13-8.24.93-12.3a1.93 1.93 0 0 0 0-.48c-.32-4.46.26-8.9.63-13.3.32-3.71 0-7.43.7-11.14.43-2.39.1-4.92.1-7.38 0-.59-.39-.82-.91-.89z" class="cls-9" transform="translate(-283.42 -109.05)"/><path d="M476.41 646.67a1 1 0 0 1 .64-.92c4.46-1.82 8.74-4.07 13.37-5.48a7.49 7.49 0 0 1 1.17-.16q-1.15 6.4-2.3 12.82a120.46 120.46 0 0 1-12.88-6.26z" class="cls-10" transform="translate(-283.42 -109.05)"/><path d="M538.74 669.37l.49.17c-.23.11-.37.02-.49-.17zm102.87 2.01a.4.4 0 0 1 .43-.1c-.12.17-.25.25-.43.1z" class="cls-9" transform="translate(-283.42 -109.05)"/><path d="M512.89 350.09a16.75 16.75 0 0 1-3.38-15.29 15.3 15.3 0 0 1 3.56-6.43A110.69 110.69 0 0 1 526 316.21a24.3 24.3 0 0 0 2.14-1.91 6.46 6.46 0 0 0 1.73-5.5c-.82-6.44-.59-12.92-.6-19.39a16.37 16.37 0 0 1 1.46-6.27c1.08-2.56 2.33-3.11 5.08-2.35a4.44 4.44 0 0 0 .62-3c0-3.55 1.73-6 4.46-8a34.46 34.46 0 0 1 10.22-5.14 147.4 147.4 0 0 1 27.89-5.31c16.21-1.61 32.22-.13 48.15 2.94a57.86 57.86 0 0 1 24.17 11c3.07 2.31 5.28 5.12 5 9.25-.06.8.25 1.13 1.07 1.19 3.91.28 6.12 2.75 7.64 6.05a21.41 21.41 0 0 1 1.35 4.83c.13.64.23 1.29-.79 1.31-.69 0-.59.64-.6 1.08v7c0 .9.57 1.45 1 2.1 1 1.51 2.38 2.78 3.11 4.52a3.88 3.88 0 0 1-.21 3.86 95.9 95.9 0 0 0-2.33 3.91c-.91 1.6-.72 2.37.78 3.43.19.13.4.26.61.38a23.31 23.31 0 0 1 11.65 24 1.93 1.93 0 0 0 0 .24A26.92 26.92 0 0 1 669.17 363a4.18 4.18 0 0 1-2.25 1.25A26.68 26.68 0 0 0 659 359c-.19.5-.3.8-.4 1.09a24.29 24.29 0 0 1-13.86 14.71 7.38 7.38 0 0 0-2.54 1.26c-1.26.48-2.52 1-3.79 1.44-8.11 2.93-16.5 3.42-25 2.85-4.94-.33-4.94-.31-8.51-3.84-1.57-1.55-3-3.32-5.48-3.45-.09 0-.17-.24-.25-.37a3.52 3.52 0 0 0 .36-2.09c.25-4.81 2.22-7.51 6.77-9.06a1.92 1.92 0 0 0 1.57-2c.23-3.43.55-6.85.92-10.27.14-1.32 0-2.41-1.36-2.91-2.47-.93-2.71-2.8-2.26-5 .1-.47.14-.94.21-1.42s0-.73-.38-.76c-1.25-.11-1-1-1-1.78s-.13-1.76-.13-2.64a3.42 3.42 0 0 0-1.8-2.85 2.12 2.12 0 0 1-1.29-2.2c-.17-2.29-1-3-3.28-3.08h-4.56c-3.38 0-3.95.43-4.66 3.72-.16.77-.31 1.48-1.27 1.34s-1.09.87-1.62 1.24a1.94 1.94 0 0 0-1 1.86c0 1 .38 2.29-.23 3a3.7 3.7 0 0 0-.61 2.64 19.38 19.38 0 0 0 0 2.64 1.43 1.43 0 0 1-1 1.63 13.69 13.69 0 0 1-1.3.59 2 2 0 0 0-1.52 2.31q0 5.28-.12 10.55a1.69 1.69 0 0 0 1.23 2c2.86 1.05 4.39 3.26 5.22 6.12a17.94 17.94 0 0 1 .38 5c-2-.29-3.31.45-4.67 2a14.78 14.78 0 0 1-12.65 5 101.69 101.69 0 0 1-10.39-1.55 47.87 47.87 0 0 1-9.23-3.08 8.09 8.09 0 0 0-.79-.5 35.55 35.55 0 0 1-16.47-17.07 3 3 0 0 0-1.13-1.67c-1.28 1.53-2.57 3-3.79 4.58a1.15 1.15 0 0 1-1.8.35c-1.62-1-3.29-1.94-4.94-2.9-1.16-.94-2.28-1.94-3.5-2.8-.64-.45-1-1.44-2.05-1.24l.05-.06c-.44-1.1-1.39-1.6-2.19-2.24zm132.47-17.72c.36.42.58 1 1.34 1.07 0-1-.57-1.17-1.34-1.07-.46-1.7-1.4-2.27-3.41-2.07zm2.86 0l.24.17-.17-.23a4.84 4.84 0 0 0-4.92-3c2.03.79 3.34 2.09 4.85 3.08zm-105.1-5.3h-1.92c-.23-.7-1.82-.33-1.29-1.71.09-.25-.66-.09-1-.11l-.14-.15c0-.29 0-.7-.43-.58s-.82.58-1 .47c-1-.51-1.62.08-2.24.72a3.92 3.92 0 0 0-1.33 2.19c-.05.53.46 0 .71.08l.09.08a2.47 2.47 0 0 0 0 .72c.18.49.43.24.67 0s.38-.88 1-.92c.17.47-.86 1.69.82 1.27.28-.07-.27.71.26 1.06 1.42-.87 2.14-2.74 4-3.15.12.79-.55 1.07-1 1.51-.6.66-1.34 1.22-1.34 2.36l4.22-3.86c.21-.09.24-.16.09-.18s-.14.13-.17.22zm105 1.53c-.95 0-1.78-1-3.08-.28a11.64 11.64 0 0 1 4.6 2.85c.22.21.78.78.83.22.15-1.52 1.14 0 1.52-.58-.27-1-1.35-1.46-1.89-2.31 1.29-.31 1.78.79 2.53 1.43.21.18.5.72.62.51.68-1.13 2.08 0 2.78-1-1.62-2.44-4.18-2.16-6.65-2.51.15.74 1 .89.75 1.59-.87-.39-1.56-1.18-2.61-1.36 0 .66.55.86.76 1.26zM559.94 316a12.46 12.46 0 0 0-3.87 2.15 15.63 15.63 0 0 0 4.69-1.62 69.79 69.79 0 0 0 7.11-2.78 43.41 43.41 0 0 0 12.52-7.36 66.91 66.91 0 0 1 7.88-5.45 11.3 11.3 0 0 1 7.07-1.75 20.42 20.42 0 0 1 10.95 4.38 50 50 0 0 1 6.81 6 37.61 37.61 0 0 0 10.5 7.83c2.13 1.11 4.24 2.23 6.38 3.3.44.21.85.81 1.64.26a27.29 27.29 0 0 0-5.3-4.44 62.21 62.21 0 0 1-10.58-9.33c-3.67-4-7.68-7.68-11-12a9.94 9.94 0 0 0-5.82-3.57c-5.35-1.2-10-.22-14.07 3.83A150.7 150.7 0 0 1 559.94 316zm54.11-54.36c-2-.11-3.42.31-4.27 1.85s-.25 2.91.76 4.17a22.38 22.38 0 0 0 4.85 4.62c5.85 4 11.56 8.28 17.22 12.59a25.51 25.51 0 0 0 3.38 2.26c1.9 1 3 .81 4.48-.72a16.3 16.3 0 0 0 4.65-9c.69-3.93-.41-6-4.11-7.52-2-.8-4.07-1.46-6-2.4a50.17 50.17 0 0 0-10.12-3.59c-3.73-.9-7.46-1.74-10.84-2.22zm-34.56-.42v-.07c-1.6.1-3.21.06-4.78.31-4.34.69-8.66 1.51-13 2.28a59.8 59.8 0 0 0-12.32 3.82 4.92 4.92 0 0 0-3.31 4c-.23 1.58-.55 3.15-.71 4.73a11.35 11.35 0 0 0 1.55 6.9c1.42 2.49 3 3 5.56 1.63a59.33 59.33 0 0 0 9.64-6.25 59.12 59.12 0 0 1 9.12-6.17c3.87-2.09 7.56-4.47 11.33-6.73a11.3 11.3 0 0 0 1.55-1.12 2 2 0 0 0 .82-2.3 2 2 0 0 0-2.11-1.25c-1.1.1-2.22.2-3.34.26zM572 353.85a6.78 6.78 0 1 0-7 6.67 6.79 6.79 0 0 0 7-6.67zm59-.11a6.43 6.43 0 0 0-6.35-6.46 6.42 6.42 0 1 0-.08 12.83 6.41 6.41 0 0 0 6.43-6.37zm20-66.15c-.87 2.69-1.63 5.48-3.41 7.63-2 2.47-2.34 5-1.75 8s.76 6.12 1.11 9.21c4.12-1.51 6.22-4.5 6.05-8.59-.08-1.92-.22-3.84-.44-5.74a80.18 80.18 0 0 0-1.56-10.51zm-111.2 21.75a15.62 15.62 0 0 1 4.23-9.49c1.64-1.83 1.57-2.85.07-4.9s-3-4-4.49-5.92c-.25-.33-.37-1-1-.65v2.66a45.88 45.88 0 0 1-2.19 13.67c-.72 2.14-.61 2.8 1.31 3.92a3.84 3.84 0 0 0 2.02.71zm6.58 20.55l-.35-.44c-1.79.95-3.51 2-4.41 4.05zm94 1.73c1.7.76 3 2.26 4.79 2.81-1.28-1.56-2.66-2.88-4.84-2.81zm-99.86 0c1.23-1.2 2.76-2 3.81-3.43a5.26 5.26 0 0 0-3.86 3.44zm100.16 2.1l-.2.45 3 2a3.52 3.52 0 0 0-2.85-2.44zm-.6-.52c-1.11-.42-1.67-.92-2.81-.71a2.46 2.46 0 0 0 2.73.72z" class="cls-11" transform="translate(-283.42 -109.05)"/><path d="M367.34 423.45a218 218 0 0 1 3.79-42.7 228.44 228.44 0 0 1 18.11-55.42c1.38-2.95 1.4-2.95 4.19-1.37q10.74 6.12 21.45 12.25c1.65.94 1.71 1 1 2.3-4.67 8.92-7.42 18.52-10.13 28.13-.3 1.08-.64 2.15-.95 3.22-.54 1.89-.54 1.92 1.27 2.53 4.08 1.39 8.18 2.75 12.27 4.11 2 .66 3.95 1.3 5.91 2s2.05.78 1.63 2.73q-1.12 5.26-2 10.59c-.85 5.37-1.43 10.76-1.88 16.17a201.2 201.2 0 0 0-.36 22.77 193.36 193.36 0 0 0 3.58 30.9c.23 1.18.48 2.35.68 3.53.29 1.76.26 1.87-1.45 2.36-4.3 1.23-8.62 2.4-12.93 3.6-1.92.53-3.83 1.12-5.77 1.6-1.16.3-1.47.75-1.15 2a146.32 146.32 0 0 0 7.65 23.18c2.26 5.2 4.57 10.39 6.85 15.58.81 1.82.83 1.87-.79 2.8q-11.06 6.39-22.22 12.69c-1.66 1-1.73.92-2.68-.89a238.67 238.67 0 0 1-11.22-24.64A218.83 218.83 0 0 1 371 464.15c-1.2-6.44-2.06-12.92-2.71-19.44a207.86 207.86 0 0 1-.95-21.26z" class="cls-12" transform="translate(-283.42 -109.05)"/><path d="M705.78 384.55a45.76 45.76 0 0 1 11.43 1 22.53 22.53 0 0 1 6.22 2.42c8.86 5.41 17 11.71 23.57 19.81a56.19 56.19 0 0 1 4.57 6.74 31.59 31.59 0 0 1 4.21 13.61c1.19 13.14 2.35 26.28 2.58 39.48 0 3.36-.05 6.72-.19 10.07a143.06 143.06 0 0 0 1.16 21.3 44.07 44.07 0 0 1 .3 5.74c-.08 3.59-2.15 5.79-5.74 6.09-1 .08-1.92 0-2.88 0-4.91-1-9.74-2.4-14.6-3.67a75.51 75.51 0 0 0-37.45-.59c-2.84.69-5.64 1.55-8.71 2.4-.14-2.54-.25-4.9-.4-7.27l-2.28-37.08c-.53-8.61-1-17.23-1.58-25.83-.46-6.46-.85-12.88.14-19.35a160.61 160.61 0 0 1 4.87-23.09c1-3.31 2.41-6.42 5.25-8.64a23.9 23.9 0 0 1 9.53-3.14z" class="cls-8" transform="translate(-283.42 -109.05)"/><path d="M538 258.17a123.37 123.37 0 0 0-18 7.29A164.85 164.85 0 0 0 476.39 296c-.23.22-.47.43-.68.67-.68.82-1.29.69-2 0-2-2.08-4-4.12-6.06-6.16q-4.73-4.77-9.47-9.52a4.19 4.19 0 0 0-.77-.44c-1.52 3.14-4.37 5-6.72 7.37a182.39 182.39 0 0 0-16.93 19.89q-2.52 3.36-4.91 6.81c-1.13 1.62-1.35 1.4-2.64.68-7.12-4-14.29-7.86-21.44-11.79-1.7-.94-1.72-1-.62-2.69a240.47 240.47 0 0 1 18.71-25.5 227.57 227.57 0 0 1 122-74.77 205.68 205.68 0 0 1 28.36-4.55c3.26-.28 6.52-.62 9.78-.83 1.76-.12 1.83 0 1.83 1.64 0 6.15 0 12.31-.06 18.47-3.93.68-7.91 1-11.81 1.92-9.22 2.11-18 5.06-24.57 12.41-4.45.78-4.45.78-3.62 4.69-.22.43-.41.87-.65 1.28a38 38 0 0 0-5.12 14.29c-.44 2.76-.7 5.53-1 8.3z" class="cls-12" transform="translate(-283.42 -109.05)"/><path d="M440.87 520.51a8.42 8.42 0 0 1-4.92-6.07 80.15 80.15 0 0 1-2-25.68c.81-12.63 3.59-24.94 6.22-37.27 1.52-7.1 3-14.21 4.09-21.39a14 14 0 0 1 1.29-3.83c5.08-10.72 12.8-19.2 22.27-26.19a72 72 0 0 1 21.7-10.89c.77-.14 1.55-.28 2.32-.44 3.93-.77 7.83-.94 11.61.71a4.76 4.76 0 0 1 1.83 3.22c.26 1.66.65 3.29.9 4.95 1.64 10.57 3.12 21.18 4.15 31.83.26 2.68.94 5.37.47 8.1-.86 5-1.76 9.9-2.61 14.86q-5.14 29.73-10.27 59.47c-.46 2.69-.47 2.65-3.11 2.21a69.76 69.76 0 0 0-22.66 0c-8.39 1.33-16.34 4.32-24.51 6.45a27.55 27.55 0 0 1-6.77-.04z" class="cls-8" transform="translate(-283.42 -109.05)"/><path d="M822.07 423.34a224.18 224.18 0 0 1-10.58 68.14 253.54 253.54 0 0 1-13.69 34.24c-.21.44-.43.86-.65 1.29-.91 1.76-.92 1.78-2.59.86l-14-7.8c-1.61-.9-3.2-1.82-4.82-2.69-2-1.09-1.67-1-.93-2.67 3.35-7.44 6.54-14.94 9.34-22.6a179.15 179.15 0 0 0 5.4-17.11c.46-1.76.45-1.81-1.3-2.32q-10.49-3-21-6c-2.94-.83-3-.84-2.37-3.81a216.76 216.76 0 0 0 4-31.33 193 193 0 0 0-4.13-49c-.44-2-.45-2 1.48-2.69l21.12-7.12.91-.32c1.89-.67 2-.73 1.37-2.53q-2.05-6.39-4.19-12.75c-2.07-6.14-4.75-12-7.34-18-.28-.66-.51-1.35-.85-2-.47-.88-.31-1.43.61-1.91q10.42-5.44 20.8-11c1.13-.6 1.5-.13 1.93.82 2.5 5.62 4.86 11.31 7 17.08a233.15 233.15 0 0 1 10.91 39.68q1.82 10 2.67 20.18c.59 7.14.95 14.23.9 21.36zM607.08 216c0-5.92-.06-11.84-.05-17.76 0-1.77.07-1.81 2-1.76 5.2.14 10.35.78 15.51 1.39a208.37 208.37 0 0 1 28.46 5.4 226 226 0 0 1 57.21 23.63 231 231 0 0 1 42.33 31.71 227.24 227.24 0 0 1 34.9 41.94l.77 1.21c.4.61.2 1-.39 1.37s-1.24.74-1.86 1.1l-18.48 10.7c-2.05 1.18-2.11 1.19-3.29-.88a117.91 117.91 0 0 0-21.36-27c-.52-.5-1-1-1.58-1.47a13.91 13.91 0 0 1-4.27-5 11.53 11.53 0 0 0-2.78 2.21l-15.4 14.44c-1.65 1.54-1.67 1.55-3.23 0a171.9 171.9 0 0 0-41.41-29.61 137.65 137.65 0 0 0-17.77-7.79c-.55-2.72-.49-5.52-1.14-8.24a51.78 51.78 0 0 0-6.44-14.78c.41-1.44.8-2.89 1.22-4.33.24-.83.08-1.4-.84-1.61-2.38-.57-4.65-1.58-7.13-1.79-.22 0-.31-.14-.26-.36-.32-.22-.67-.42-1-.67a49.35 49.35 0 0 0-22.11-10.62c-3.87-.7-7.76-.95-11.61-1.43z" class="cls-12" transform="translate(-283.42 -109.05)"/><path d="M696.25 387.69c-2.84 2.22-4.22 5.33-5.25 8.64a160.61 160.61 0 0 0-4.87 23.17c-1 6.47-.6 12.89-.14 19.35.61 8.6 1 17.22 1.58 25.83q1.13 18.54 2.28 37.08c.15 2.37.26 4.73.4 7.27 3.07-.85 5.87-1.71 8.71-2.4a75.51 75.51 0 0 1 37.45.59c4.86 1.27 9.69 2.64 14.6 3.67-.78.33-1.77-.33-2.45.5h-.94a1.52 1.52 0 0 0-1.41-.45l-.14-.13-.18.05a1.92 1.92 0 0 0-1.6-.39.24.24 0 0 0-.38-.08 3.83 3.83 0 0 0-2.5-.41.27.27 0 0 0-.41-.06 38 38 0 0 0-11.8 0l-.14-.1-.13.11a30 30 0 0 0-6.75.49 22.78 22.78 0 0 0-5.94.46 1.5 1.5 0 0 0-1.24.1 17.85 17.85 0 0 0-5.36.38 1 1 0 0 0-.88.08 8.51 8.51 0 0 0-3.88.41.33.33 0 0 0-.44.07 5.77 5.77 0 0 0-3 .41.26.26 0 0 0-.4.06 5.77 5.77 0 0 0-2.93.42.31.31 0 0 0-.43.07 5.5 5.5 0 0 0-2.86.43l-.5.08a3.76 3.76 0 0 0-2.42.39l-.46.08a2.43 2.43 0 0 0-1.92.41l-.48.09a1.11 1.11 0 0 0-1.12.35 6.64 6.64 0 0 0-3.72 1.74c-.19 0-.29.06-.3.25l-.13.09a.38.38 0 0 0-.43.37l-.06.05c-.95-.34-.61-1.22-.66-1.85-.34-3.91-.27-7.83-.26-11.75a2.63 2.63 0 0 0-.72-2.38c-5.77-5-12.23-7.1-19.77-4.88a59.14 59.14 0 0 0-9.11 3.61c-4.4 2.12-5.94 4.91-5.66 9.82a64 64 0 0 0 1.18 8.3 39.61 39.61 0 0 0 13.91 23.45c6.38 5.36 14 4.87 20.16-.81l.85.14a41.57 41.57 0 0 0 .52 5.1l-1 .91-5.19 3.41a16.54 16.54 0 0 0-5.42-.88c-7 .06-13.57-1.69-20.17-3.59q-11.59-3.33-23.23-6.57a4.14 4.14 0 0 1-2.71-2c-1.46-2.44-3.17-4.74-4.9-7.27 4.67-2.36 7-6.13 6.91-11.34a39 39 0 0 1 2.23-6.3c3-5.9 6-11.8 9.22-17.57a25.06 25.06 0 0 1 6.89-7.85 20.26 20.26 0 0 0 5.41-5.66 66.46 66.46 0 0 0 9.37-14.42 31.48 31.48 0 0 1 6.54-9.38 3 3 0 0 0 1-3.49 117.85 117.85 0 0 1-4.21-27.17c-.21-8.65.14-17.27.74-25.88.29-4.23.77-8.44 1.32-12.64.39-3.08.73-6.21 2.46-8.93 4 1 7.86 2.48 11.75 3.86a134.52 134.52 0 0 0 15.52 4.49zM674 473c-3.13 5-6 9.58-8.87 14.18a7.74 7.74 0 0 0-.79 1.73c-.59 1.8-.14 2.81 1.67 3.26a27 27 0 0 0 14.47-.6c-2.35-6.03-4.43-12.04-6.48-18.57zm-226.4 47.53c8.17-2.13 16.12-5.12 24.51-6.45a69.76 69.76 0 0 1 22.66 0c2.64.44 2.65.48 3.11-2.21q5.14-29.75 10.27-59.47c.85-5 1.75-9.9 2.61-14.86.47-2.73-.21-5.42-.47-8.1-1-10.65-2.51-21.26-4.15-31.83-.25-1.66-.64-3.29-.9-4.95a4.76 4.76 0 0 0-1.83-3.22c2.46-.9 4.91-1.87 7.4-2.68 3.55-1.16 6.95-2.75 10.59-3.65a23.06 23.06 0 0 1 2.83 14.54 47.87 47.87 0 0 0-.3 7.18c.12 2.95.4 5.89.5 8.84.32 9.05-.53 18-1.27 27-.3 3.74-.77 7.47-1.13 11.2-.07.74-.35 1.48.65 2.05 3.83 2.16 6.28 5.62 8.31 9.37 3.67 6.78 8.44 12.78 13.2 18.78a13.61 13.61 0 0 0 2.19 2.81 109 109 0 0 1 10 13.65 19 19 0 0 1 3.6 10.71 15.53 15.53 0 0 0 .33 2.61 10.4 10.4 0 0 0 5.21 7.85 2.07 2.07 0 0 0 1 .77c0 .28.06.55.1.83a9.56 9.56 0 0 0-4.84 3.36 21.5 21.5 0 0 0-3.53 5.4 96.33 96.33 0 0 0-7.25 23.5c-.17 1.09-.22 2.2-.34 3.43-5.56-1.52-11-3.07-16.47-4.47-6.48-1.66-12.89-3.65-19.51-4.72-1.25-.2-2.4-.89-3.7-.91-.11-.25-.26-.43-.57-.32-.43-1-.06-2-.23-3l.09-.48a22.8 22.8 0 0 0-.63-7.31 16.58 16.58 0 0 1-.22-2.84h.47a16.2 16.2 0 0 0 7.94 8 44 44 0 0 0 7 2.57 13.35 13.35 0 0 0 5.69.46c3.44-.54 5.5-2.77 6.81-5.78a132.93 132.93 0 0 0 6.46-18.54c1.48-5.49-.08-10.13-4.26-13.85a36.68 36.68 0 0 0-12.16-7.07c-4.27-1.53-8.18-.6-11.67 2.24a17.34 17.34 0 0 0-6.16 11.32 68.35 68.35 0 0 0-.71 16.48l-.58.07c-1.65-4.6-5.24-6.44-9.81-6.69-4.15-.23-8.3-.29-12.45-.39-5.83-.13-11.64-.55-17.45-1-6.71-.49-13.39-.46-20 1.14a26 26 0 0 0-5.75 2.28c0-1 0-2-.07-3 1.61-.35 3.34.31 4.88-.65zm61.87-28.74a64.22 64.22 0 0 0 9.7.84 20.29 20.29 0 0 0 5.41-.8 4.67 4.67 0 0 0 3.47-4.38 5.25 5.25 0 0 0-1.72-4.06c-3-3.25-6.34-6.17-9.14-10.14a143.44 143.44 0 0 1-7.72 18.54z" class="cls-13" transform="translate(-283.42 -109.05)"/><path d="M648.77 236.85a51.78 51.78 0 0 1 6.44 14.78c.65 2.72.59 5.52 1.14 8.24v6.42a68.86 68.86 0 0 0-14.29-8.87c-6-2.77-12.39-4.13-18.77-5.55a110.94 110.94 0 0 0-27.1-2.92 207.35 207.35 0 0 0-37.58 4.21 85.24 85.24 0 0 0-18.27 6.34l-2.34 1.12v-2.45c.33-2.77.59-5.54 1-8.3a38 38 0 0 1 5.16-14.32c.24-.41.43-.85.65-1.28l3.62-4.69c6.57-7.35 15.35-10.3 24.57-12.41 3.9-.9 7.88-1.24 11.81-1.92h5c5.8-.2 11.55.47 17.33.75 3.85.5 7.74.75 11.57 1.5a49.35 49.35 0 0 1 22.11 10.62c.3.25.65.45 1 .67a.39.39 0 0 0 .26.36 95.27 95.27 0 0 1 6.69 7.7zm35.42 279.6a6.64 6.64 0 0 1 3.72-1.74 1.09 1.09 0 0 0 1.12-.35l.48-.09c.66 0 1.39.23 1.92-.41l.46-.08c.82-.06 1.71.32 2.42-.39l.5-.08c1-.1 2 .38 2.86-.43a.31.31 0 0 1 .43-.07c1-.08 2.06.41 2.93-.42a.26.26 0 0 1 .4-.06c1-.07 2.07.4 3-.41a.33.33 0 0 1 .44-.07c1.29-.12 2.66.48 3.88-.41a1 1 0 0 1 .88-.07c1.78-.14 3.63.52 5.36-.39a1.5 1.5 0 0 1 1.24-.1c1.18 0 2.36.08 3.53 0 .82 0 1.75.35 2.41-.49h5c.63 0 1.3.11 1.74-.52l.13-.11.14.1H741a.27.27 0 0 1 .41.06c.73.77 1.65.37 2.5.41a.24.24 0 0 1 .38.08c.43.57 1 .43 1.6.39l.18-.05.14.13c.34.54.89.45 1.41.45.34.57.89.47 1.41.46.29.57.83.48 1.33.5h.1a.93.93 0 0 0 1 .41 1 1 0 0 1 1 .44c0 .39.33.52.67.55a9.86 9.86 0 0 1 1.24 3.72l.23.57a1.82 1.82 0 0 1 .27 1.29l.24.64c1.43 4.68 1.32 9.48 1 14.27-.24 3.34-.72 6.67-1.1 10q-1.69 10.86-3.4 21.71c-.27 1.66-.32 1.66-2.05 1.19-8.73-4.11-17.85-7-27.49-7.64-8.89-.59-17.82-1.52-26.74-.12a4.29 4.29 0 0 1-3.86-1.69c-.62-.74-1.2-1.7-2.39-1.69a2 2 0 0 0-1.9-1.43 1.28 1.28 0 0 0-1.42-1c-1.17-1.57-1.21-3.45-1.42-5.28-.09-.82.29-1.75-.54-2.4a41.57 41.57 0 0 1-.52-5.1 8.4 8.4 0 0 0 0-1.66c-.61-3.43-1.08-6.89-2-10.25a16.9 16.9 0 0 1-.4-8.89l.57-.47c.87-.58 1.16-1.61 1.81-2.36l.06-.05.43-.37.12-.09a.52.52 0 0 0 .32-.14z" class="cls-8" transform="translate(-283.42 -109.05)"/><path d="M521.4 383.13c-3.64.9-7 2.49-10.59 3.65-2.49.81-4.94 1.78-7.4 2.68-3.78-1.65-7.68-1.48-11.61-.71-.77.16-1.55.3-2.32.44l-38.22-14.06-.9-.32c-1.43-.58-1.47-.61-.67-2 2.23-4 4.5-7.93 6.76-11.88l20.58-36a6.25 6.25 0 0 1 1.67-2.26l33.66 28c.77.7 1.19 2 2.61 1.64l-.05.06c.81 2 2.77 2.84 4.36 4.05l3.76 3.3c4 3.43 8.16 6.58 12 10.19-5.33 3.08-10.6 6.25-15.72 9.67.68 1.29 1.68 2.26 2.08 3.55zm174.85 4.56a134.52 134.52 0 0 1-15.53-4.5c-3.89-1.38-7.74-2.86-11.75-3.86.76-3.4.49-3.94-2.63-5.74-2.14-1.24-4.48-2.06-6.71-3.1 1.79-1.31 3.61-2.57 5.34-3.94.78-.61 1.8-1.08 1.95-2.26a4.18 4.18 0 0 0 2.25-1.25 26.92 26.92 0 0 0 10.4-16.63c2.71-1.58 4.86-3.86 7.23-5.86 7.5-6.34 14.93-12.76 22.4-19.14 1.7-1.45 1.74-1.42 2.9.55q13.78 23.57 27.55 47.14c.24.4.61.75.58 1.3-.37.58-1 .67-1.6.9q-14.57 5.82-29.12 11.64c-1.25.5-2.48 1.07-3.73 1.61a23.9 23.9 0 0 0-9.53 3.14z" class="cls-12" transform="translate(-283.42 -109.05)"/><path d="M695.3 559.44c8.92-1.4 17.85-.47 26.74.12 9.64.64 18.76 3.53 27.49 7.64-1.2 8-2.59 15.89-4.47 23.73-.18.73-.74 1.5.13 2.18a8.76 8.76 0 0 0-1.81 3.6 187.23 187.23 0 0 1-9.56 23.46 32.81 32.81 0 0 1-8.45 10.59c-2.35 2-5.17 2.82-8.21 1.26a29.93 29.93 0 0 1-3-1.52c-4.55-3-9.87-4-14.89-5.78a2.86 2.86 0 0 0-.72 0 58.45 58.45 0 0 0-9.13-3.45c-1.6-1.2-3.57-1.53-5.37-2.27-1.37-.57-2.79-1-4.19-1.5a.47.47 0 0 1 .1-.44c10.37-.88 18.87-5.15 24.66-14 4.52-6.9 5.38-14.29 1.77-21.84s-7.57-14.58-13-20.83c.35-.92 1.41-.39 1.91-.95z" class="cls-5" transform="translate(-283.42 -109.05)"/><path d="M745.19 593.11c-.87-.68-.31-1.45-.13-2.18 1.88-7.84 3.27-15.76 4.47-23.73 1.73.47 1.78.47 2.05-1.19q1.73-10.86 3.4-21.71c1.7-.91 2.42-2.7 3.62-4.07 1-1.19 1.62-3.17 3.06-3.53s2.81 1.18 4.19 1.93c5.46 3 10.89 6 16.32 9.06a2.69 2.69 0 0 1 1.39 1.13c-2.2 3.6-4.75 7.06-7.31 10.51a219.29 219.29 0 0 1-24 27.26c-2.34 2.22-4.72 4.35-7.06 6.52zm-300.97-4.32c.29 1.18.57 2.37.85 3.56.11.45.18.91-.34 1.2a245.84 245.84 0 0 1-20.34-20.62A233.1 233.1 0 0 1 408 551.68c-1.21-1.78-1.21-1.83.57-2.91q10.7-6.43 21.43-12.77c1.47-.88 1.51-.86 2.49.51a63.5 63.5 0 0 0 4.48 6.21c.16 4.55.27 9.1.49 13.64a200.92 200.92 0 0 0 3.66 28.49c.31 1.56.6 3.12.9 4.68.9.22 1.41-.7 2.2-.74zm245.21 32.45a58.45 58.45 0 0 1 9.13 3.45 47.15 47.15 0 0 1-8.35 4.09 56.19 56.19 0 0 1-.78-7.54z" class="cls-12" transform="translate(-283.42 -109.05)"/><path d="M447.6 520.53c-1.54 1-3.27.3-4.89.6-.64-.13-1.36 0-1.84-.62a27.55 27.55 0 0 0 6.73.02z" class="cls-6" transform="translate(-283.42 -109.05)"/><path d="M515 352.31c-1.42.33-1.84-.94-2.61-1.64l.53-.58c.77.64 1.72 1.14 2.08 2.22z" class="cls-3" transform="translate(-283.42 -109.05)"/><path d="M750.4 512.38c-.5 0-1 .07-1.33-.5a1.5 1.5 0 0 1 1.33.5zm-1.4-.51c-.52 0-1.07.11-1.41-.46h.94zm2.45.95a.93.93 0 0 1-1-.41.9.9 0 0 1 1 .41zm1.67.99c-.34 0-.62-.16-.67-.55.38 0 .63.14.67.55zm1.98 6.19l-.24-.64a.51.51 0 0 1 .24.64zm-.51-1.9l-.23-.57a.45.45 0 0 1 .23.57z" class="cls-11" transform="translate(-283.42 -109.05)"/><path d="M565.57 519.75a10.4 10.4 0 0 1-5.21-7.85 15.53 15.53 0 0 1-.33-2.61 19 19 0 0 0-3.6-10.71 109 109 0 0 0-10-13.65 13.61 13.61 0 0 1-2.19-2.81 86.92 86.92 0 0 0 8.83-.37c2.27-.27 4.59-.48 6.88-.71 4.1-.42 8.18-1.12 12.31-1.29a2.62 2.62 0 0 0 2.32-1c1-1.55 2.59-2.64 3.53-4.2 3.85-6.37 9.29-11.53 13.31-17.77.91-1.41 1.88-1.4 3.19-.28a28.32 28.32 0 0 1 3.55 4.19 212.9 212.9 0 0 0 14.48 16.85c2.89 3 6.15 3.45 9.82 3a24.7 24.7 0 0 1 3.31-.31c6.39 0 12.77-.14 19.15.44 2.29.21 4.63-.12 6.88.58a20.26 20.26 0 0 1-5.41 5.66 25.06 25.06 0 0 0-6.89 7.85c-3.25 5.77-6.23 11.67-9.22 17.57a39 39 0 0 0-2.23 6.3c-4.64-1.87-9.23-3.86-14-5.39a72.76 72.76 0 0 0-14.81-3.37c-2.07-.21-4.11-.32-6.17-.37a36.88 36.88 0 0 0-15.24 3.36 93.89 93.89 0 0 0-11.83 6.35c-.16.11-.28.36-.43.54zm111.95 30.53l5.19-3.41c1.64 1.44 1 3.23.93 4.89-1 .29-1.85-1.18-2.75 0-1.06-.67-2.43-.58-3.37-1.48z" class="cls-9" transform="translate(-283.42 -109.05)"/><path d="M510.57 547a119.38 119.38 0 0 1-2.18 13.15 4.46 4.46 0 0 0-.24.92c.08 3.07-2 4.15-4.81 5a5 5 0 0 1 2.44-1.71 2.27 2.27 0 0 0 1.34-1.79c.71-3.83 1.56-7.62 2.29-11.44.28-1.46-.14-3.06.91-4.36a1.31 1.31 0 0 1 .25.23zm94.88 40.66c.31-.8 1.41-.77 1.7-1.63l-2.65-1.59.12-.14a3.82 3.82 0 0 1 1.8.51l14.21 7.11a3 3 0 0 1 1.29 1l-.14.16c-3.48-1.36-6.7-3.26-10.06-4.88-3.14-1.51-3.12-1.55-6.14-.4zm75.44-35.94c.9-1.14 1.7.33 2.75 0 .05-1.66.71-3.45-.93-4.89l1-.91c.83.65.45 1.58.54 2.4.21 1.83.25 3.71 1.42 5.28-1.76-.18-3.04-1.6-4.78-1.88zm-8.11 65.73c-2.72-.51-5.53-.55-8.2-1.37l-3.43-1.08c.24-.61.68-.44 1-.34a32.2 32.2 0 0 0 9.31 1.89 4.77 4.77 0 0 1 1.34.47 1.19 1.19 0 0 0-.02.43z" class="cls-2" transform="translate(-283.42 -109.05)"/><path d="M610.77 534a12.19 12.19 0 0 1-5.72-1.49 2.44 2.44 0 0 1 .94 0c2.67 1.29 5.17.51 7.66-.57l.08.1c-.64 1.11-2.08 1-2.9 1.85z" class="cls-4" transform="translate(-283.42 -109.05)"/><path d="M695.3 559.44c-.5.6-1.56 0-1.92.92a21 21 0 0 1-4.33-4.3c1.19 0 1.77 1 2.39 1.69a4.29 4.29 0 0 0 3.86 1.69z" class="cls-2" transform="translate(-283.42 -109.05)"/><path d="M630.19 597.32c-2.34-.82-4.74-1.54-6.43-3.54 2.17 1.12 4.53 1.92 6.43 3.54z" class="cls-4" transform="translate(-283.42 -109.05)"/><path d="M509.92 533h-.47c-.4-1.37-.81-2.74-1.21-4.11l.58-.08c.37 1.34.73 2.74 1.1 4.19z" class="cls-6" transform="translate(-283.42 -109.05)"/><path d="M583.85 600.62a11.48 11.48 0 0 1 4.76-2.84l.62.07a20 20 0 0 1-5.26 2.9z" class="cls-9" transform="translate(-283.42 -109.05)"/><path d="M596.45 580.46c1.87.21 3.32 1.36 4.86 2.3a12.51 12.51 0 0 1-5-2.17z" class="cls-2" transform="translate(-283.42 -109.05)"/><path d="M672.78 617.45a1.19 1.19 0 0 1 0-.42H680a.49.49 0 0 0-.09.44zm-106.06-96.1c0-.28-.07-.55-.1-.83h4.25c.54 0 1.12-.08 1.51.44a21.85 21.85 0 0 0-5.66.39zm68.76 78.85c-1.74-.46-3.45-1-4.52-2.58a17.64 17.64 0 0 1 4.52 2.58z" class="cls-4" transform="translate(-283.42 -109.05)"/><path d="M536 558.5a12.18 12.18 0 0 1-5.31 1.41 12.17 12.17 0 0 1 5.27-1.46zm55.17 19.57a9.8 9.8 0 0 1 4.34 1.9l-.12.15a10 10 0 0 1-4.33-1.93zm-7.76-51.73a6.75 6.75 0 0 1-4-1.66 8.71 8.71 0 0 1 4.08 1.55zm1.51.37a10.93 10.93 0 0 1 4.82 1.43l-.1.12a10.77 10.77 0 0 1-4.81-1.44zM655 611.65c1.27.27 2.28 1.09 3.72 1.67-1.8.06-2.1-.07-3.86-1.51zm-134.9-49.82c-1.55 1-3.19.29-4.79.3 1.56-.52 3.17-.27 4.76-.34z" class="cls-2" transform="translate(-283.42 -109.05)"/><path d="M573.42 607a6.64 6.64 0 0 1-3.38 1.92l-.1-.13a5 5 0 0 1 3.37-1.91zm5.76-3.37a6.7 6.7 0 0 1-3.37 1.92l-.11-.13a5 5 0 0 1 3.37-1.91z" class="cls-9" transform="translate(-283.42 -109.05)"/><path d="M566.58 610.7a6.58 6.58 0 0 1 3.36-1.92l.1.13a6.45 6.45 0 0 1-3.35 1.92z" class="cls-9" transform="translate(-283.42 -109.05)"/><path d="M651.67 609.73a6.81 6.81 0 0 1 3.36 1.92l-.14.16a7.32 7.32 0 0 1-3.36-1.92z" class="cls-2" transform="translate(-283.42 -109.05)"/><path d="M563.23 612.63a6.5 6.5 0 0 1 3.35-1.93l.11.13a6.53 6.53 0 0 1-3.35 1.92z" class="cls-9" transform="translate(-283.42 -109.05)"/><path d="M526.29 560.82a8.23 8.23 0 0 1 4.32-1 7.88 7.88 0 0 1-4.33 1zm46.06 9.18a6.18 6.18 0 0 1-3.35-1.4l.11-.14a6.14 6.14 0 0 1 3.38 1.43z" class="cls-2" transform="translate(-283.42 -109.05)"/><path d="M572.47 569.89a6.06 6.06 0 0 1 3.35 1.46l-.1.11a5.94 5.94 0 0 1-3.37-1.43z" class="cls-2" transform="translate(-283.42 -109.05)"/><path d="M579.07 572.91a5.84 5.84 0 0 1-3.35-1.45l.1-.11a6.2 6.2 0 0 1 3.37 1.42z" class="cls-2" transform="translate(-283.42 -109.05)"/><path d="M582.43 574.35a5.92 5.92 0 0 1-3.36-1.44l.12-.14a6.3 6.3 0 0 1 3.35 1.45z" class="cls-2" transform="translate(-283.42 -109.05)"/><path d="M582.54 574.22a6.24 6.24 0 0 1 3.36 1.44l-.11.13a5.79 5.79 0 0 1-3.36-1.44zm7.57 3.49a6.05 6.05 0 0 1-3.37-1.44l.11-.12a5.87 5.87 0 0 1 3.37 1.43zm-27.74-12.12a6 6 0 0 1 3.37 1.43l-.1.13a6.06 6.06 0 0 1-3.39-1.42zm6.63 3.01a6.05 6.05 0 0 1-3.34-1.45l.1-.13a5.93 5.93 0 0 1 3.35 1.44zm29.28-37.94a4.82 4.82 0 0 1-3.35-1 5.34 5.34 0 0 1 3.43.92z" class="cls-2" transform="translate(-283.42 -109.05)"/><path d="M601.71 531.58a5 5 0 0 1 3.33.95 5.43 5.43 0 0 1-3.36-.93z" class="cls-4" transform="translate(-283.42 -109.05)"/><path d="M601.69 531.59a5.06 5.06 0 0 1-3.41-.93l.09-.11a4.91 4.91 0 0 1 3.34 1zm20.66 5.69a6.49 6.49 0 0 1 3.39.92 4.71 4.71 0 0 1-3.47-.81zm-33.12 60.57l-.62-.07a3.86 3.86 0 0 1 2.46-1.47l.12.13c-.44.77-1.28.97-1.96 1.41z" class="cls-2" transform="translate(-283.42 -109.05)"/><path d="M581.45 602.06a3.85 3.85 0 0 1 2.4-1.44l.12.13a3.65 3.65 0 0 1-2.4 1.44z" class="cls-9" transform="translate(-283.42 -109.05)"/><path d="M579.07 603.51a3.66 3.66 0 0 1 2.38-1.45l.12.13a3.73 3.73 0 0 1-2.39 1.44zm59.65-1.51a2.12 2.12 0 0 1 1.87.94c0 .21 0 .41-.05.61-.69-.4-1.52-.61-2-1.38z" class="cls-9" transform="translate(-283.42 -109.05)"/><path d="M523.46 561.35c-1 .91-2.24.31-3.36.48 1-.9 2.24-.31 3.36-.48zm121.84 44.7a4 4 0 0 1-2.42-1.44l.14-.15a3.91 3.91 0 0 1 2.42 1.42z" class="cls-2" transform="translate(-283.42 -109.05)"/><path d="M575.81 605.55a3.73 3.73 0 0 1-2.39 1.44l-.11-.12a3.65 3.65 0 0 1 2.39-1.45z" class="cls-9" transform="translate(-283.42 -109.05)"/><path d="M647.69 607.49a3.88 3.88 0 0 1-2.39-1.44l.14-.17a4.16 4.16 0 0 1 2.4 1.44z" class="cls-2" transform="translate(-283.42 -109.05)"/><path d="M535.93 626.14a4.66 4.66 0 0 1-2.87 1v-.07a3.31 3.31 0 0 1 2.9-.93z" class="cls-9" transform="translate(-283.42 -109.05)"/><path d="M610.82 534c.92-.06 1.65.53 3 .65a2.9 2.9 0 0 1-3.09-.59z" class="cls-4" transform="translate(-283.42 -109.05)"/><path d="M651.53 609.89a4.12 4.12 0 0 1-2.4-1.45l.14-.15a3.75 3.75 0 0 1 2.4 1.44zm-45.95-22.09a3.75 3.75 0 0 1-2.4 1.44l-.13-.15a3.88 3.88 0 0 1 2.4-1.43z" class="cls-2" transform="translate(-283.42 -109.05)"/><path d="M538.29 625.62a3 3 0 0 1 2.4-1l.07.08a3.1 3.1 0 0 1-2.42.95z" class="cls-9" transform="translate(-283.42 -109.05)"/><path d="M562.25 565.73a3.1 3.1 0 0 1-2-.75c1-.55 1.52.17 2.15.61zm-35.92-4.86c-.84.86-1.91.34-2.87.48.83-.85 1.9-.34 2.86-.49zm160.8-6.26A2 2 0 0 1 689 556a2.16 2.16 0 0 1-1.87-1.39z" class="cls-2" transform="translate(-283.42 -109.05)"/><path d="M617.94 529.48a2.35 2.35 0 0 1 2.07-.16c-.69.68-1.4.13-2.07.16z" class="cls-4" transform="translate(-283.42 -109.05)"/><path d="M553.24 562.25a2.12 2.12 0 0 1 1.66.89 1.41 1.41 0 0 1-1.74-.82z" class="cls-2" transform="translate(-283.42 -109.05)"/><path d="M594.93 529.65c-.52-.06-1.09.15-1.67-.32a1.23 1.23 0 0 1 1.68.3z" class="cls-4" transform="translate(-283.42 -109.05)"/><path d="M538.34 625.68c-.68.77-1.6.35-2.41.46.66-.79 1.58-.36 2.38-.5z" class="cls-9" transform="translate(-283.42 -109.05)"/><path d="M599.2 591.49a1.78 1.78 0 0 1 1.47-.94l.12.13a1.84 1.84 0 0 1-1.46 1z" class="cls-2" transform="translate(-283.42 -109.05)"/><path d="M615.17 531.14a1.82 1.82 0 0 1-1.45 1l-.08-.1a1.67 1.67 0 0 1 1.43-1z" class="cls-4" transform="translate(-283.42 -109.05)"/><path d="M596.81 592.94a1.74 1.74 0 0 1 1.46-1l.12.13a1.78 1.78 0 0 1-1.47.94zm43.73 10.64c0-.2 0-.4.05-.61a2.12 2.12 0 0 1 1.49 1l-.13.16zM592 595.81c.15-.17.27-.36.43-.51s.53-.46.74-.15-.17.49-.4.62a3.36 3.36 0 0 1-.64.18zm30.27-58.42c-.66-.09-1.4.16-1.92-.49l.09-.1c.66.08 1.4-.18 1.91.48zm-32.53-9.25c.5.08 1-.06 1.57.29a1.15 1.15 0 0 1-1.67-.17zm11.86 61.91a1.9 1.9 0 0 1 1.45-1l.13.15a1.82 1.82 0 0 1-1.45 1zm84.09-36.4a1.28 1.28 0 0 1 1.42 1 1.34 1.34 0 0 1-1.42-1z" class="cls-2" transform="translate(-283.42 -109.05)"/><path d="M615.07 531a1.41 1.41 0 0 1 1.38-.84 1.53 1.53 0 0 1-1.28.95z" class="cls-4" transform="translate(-283.42 -109.05)"/><path d="M647.84 607.32a1.9 1.9 0 0 1 1.43 1l-.14.15a1.91 1.91 0 0 1-1.44-1zm-95.15-45.48a3.54 3.54 0 0 1-.54-.39c-.21-.21-.49-.52-.17-.74s.51.17.63.41a2.68 2.68 0 0 1 .15.65zm30.8-35.61c.52 0 1.08-.05 1.43.48l-.09.11c-.52 0-1.07 0-1.42-.48zm36.86 10.67a2.32 2.32 0 0 1-.46 0 6.25 6.25 0 0 1-.6-.24.43.43 0 0 1 .59-.21 2.52 2.52 0 0 1 .56.38zm-46.47-15.47a2.42 2.42 0 0 1 .47 0 4.53 4.53 0 0 1 .6.26.43.43 0 0 1-.59.2 2.57 2.57 0 0 1-.57-.38z" class="cls-2" transform="translate(-283.42 -109.05)"/><path d="M572.38 521c.55 0 1.12-.11 1.5.44l-.09.11c-.52 0-1.11.08-1.42-.54zm-36.5 37.4a2.52 2.52 0 0 1 .56-.38.42.42 0 0 1 .59.21 6.25 6.25 0 0 1-.6.24 2.32 2.32 0 0 1-.46 0zm50.02 17.26a1.11 1.11 0 0 1 1 .49l-.11.12a1.11 1.11 0 0 1-1-.48zm4.32 1.92a1.1 1.1 0 0 1 .95.49l-.11.12a1.1 1.1 0 0 1-.95-.48zm6.12 3.01a1.15 1.15 0 0 1-1-.47l.12-.15a1.17 1.17 0 0 1 .94.49zm7.21 3.41l-.6-.21a2.11 2.11 0 0 1 .19-.25c.18.1.35.21.53.33z" class="cls-2" transform="translate(-283.42 -109.05)"/><path d="M604.5 584.44a1.18 1.18 0 0 1-1-.49l.12-.13a1.12 1.12 0 0 1 1 .48zm-3.83 6.11a1.2 1.2 0 0 1 .94-.5l.12.14a1.21 1.21 0 0 1-.94.49zm-1.34 1.08a1.22 1.22 0 0 1-.94.49l-.12-.13a1.2 1.2 0 0 1 .93-.5z" class="cls-2" transform="translate(-283.42 -109.05)"/><path d="M540.69 624.65a1.09 1.09 0 0 1 .95-.48l.07.08a1.12 1.12 0 0 1-1 .48z" class="cls-9" transform="translate(-283.42 -109.05)"/><path d="M622.94 593.45l-.66.1-.5-.47.14-.16a1.48 1.48 0 0 1 1.02.53zm-31.87 2.86a1.2 1.2 0 0 1 .94-.5l.12.14a1.21 1.21 0 0 1-.94.49zm5.85-3.25c-.14.21-.3.38-.58.33-.06 0-.1-.11-.15-.17l.62-.28z" class="cls-2" transform="translate(-283.42 -109.05)"/><path d="M533.06 627.12a1.05 1.05 0 0 1-1 .47l-.05-.05a1.08 1.08 0 0 1 1-.49z" class="cls-9" transform="translate(-283.42 -109.05)"/><path d="M531.09 628a1.06 1.06 0 0 1 1-.48l.05.05a1.07 1.07 0 0 1-1 .49z" class="cls-9" transform="translate(-283.42 -109.05)"/><path d="M531.14 628.08a1.06 1.06 0 0 1-.95.49l-.07-.08a1.07 1.07 0 0 1 1-.47z" class="cls-9" transform="translate(-283.42 -109.05)"/><path d="M530.19 628.57c-.13.2-.29.37-.55.33-.06 0-.1-.11-.14-.17l.62-.24z" class="cls-9" transform="translate(-283.42 -109.05)"/><path d="M642.88 604.61a1.27 1.27 0 0 1-.93-.49l.13-.16a1.25 1.25 0 0 1 .94.5zM510.3 543.08l-.09.48a2.22 2.22 0 0 1-.09-.37s.11-.07.18-.11zm42.46 18.69a.64.64 0 0 1 .48.48l-.08.07-.47-.48zm-42.32-15.2c.31-.11.46.07.57.32a2.25 2.25 0 0 1-.44.14 1.31 1.31 0 0 0-.25-.22.55.55 0 0 1 .12-.24z" class="cls-2" transform="translate(-283.42 -109.05)"/><path d="M586.33 371.27a17.94 17.94 0 0 0-.38-5c-.83-2.86-2.36-5.07-5.22-6.12a1.69 1.69 0 0 1-1.23-2q.15-5.26.12-10.55a2 2 0 0 1 1.52-2.31 13.69 13.69 0 0 0 1.3-.59 1.43 1.43 0 0 0 1-1.63 19.38 19.38 0 0 1 0-2.64 3.7 3.7 0 0 1 .61-2.64c.61-.74.25-2 .23-3a1.94 1.94 0 0 1 1-1.86c.53-.37.55-1.39 1.62-1.24s1.11-.57 1.27-1.34c.71-3.29 1.28-3.72 4.66-3.72h4.56c2.31 0 3.11.79 3.28 3.08a2.12 2.12 0 0 0 1.29 2.2 3.42 3.42 0 0 1 1.8 2.85c0 .88.06 1.76.13 2.64s-.23 1.67 1 1.78c.34 0 .43.42.38.76s-.11.95-.21 1.42c-.45 2.22-.21 4.09 2.26 5 1.36.5 1.5 1.59 1.36 2.91-.37 3.42-.69 6.84-.92 10.27a1.92 1.92 0 0 1-1.57 2c-4.55 1.55-6.52 4.25-6.77 9.06a3.52 3.52 0 0 1-.36 2.09 3.3 3.3 0 0 1-3.07 1.45c-1.68-.06-3.36.08-5 0-1.93-.14-3.99-.45-4.66-2.87z" class="cls-10" transform="translate(-283.42 -109.05)"/><path d="M586.33 371.27c.69 2.42 2.73 2.68 4.74 2.83 1.67.13 3.35 0 5 0a3.3 3.3 0 0 0 3.07-1.45c.08.13.16.37.25.37 2.47.13 3.91 1.9 5.48 3.45 3.57 3.53 3.57 3.51 8.51 3.84 8.52.57 16.91.08 25-2.85 1.27-.45 2.53-1 3.79-1.44a.63.63 0 0 1 .76.49c-.19.49-.65.68-1 .94a63.92 63.92 0 0 1-15.4 7.63 96.28 96.28 0 0 1-42.95 4.93 102.63 102.63 0 0 1-26.48-6.27 58.67 58.67 0 0 1-15.52-8.88l4.28-1.79 3.52.5a47.87 47.87 0 0 0 9.23 3.08 101.69 101.69 0 0 0 10.39 1.6 14.78 14.78 0 0 0 12.65-5c1.35-1.53 2.72-2.25 4.68-1.98z" class="cls-13" transform="translate(-283.42 -109.05)"/><path d="M614.05 261.68c3.38.48 7.11 1.36 10.84 2.26a50.17 50.17 0 0 1 10.11 3.59c1.93.94 4 1.6 6 2.4 3.7 1.48 4.8 3.59 4.11 7.52a16.3 16.3 0 0 1-4.65 9c-1.53 1.53-2.58 1.76-4.48.72a25.51 25.51 0 0 1-3.38-2.26c-5.66-4.31-11.37-8.55-17.22-12.59a22.38 22.38 0 0 1-4.85-4.62c-1-1.26-1.63-2.57-.76-4.17s2.23-1.96 4.28-1.85zm-34.56-.42c1.12-.06 2.24-.16 3.36-.17a2 2 0 0 1 2.11 1.25 2 2 0 0 1-.82 2.3 11.3 11.3 0 0 1-1.55 1.12c-3.77 2.26-7.46 4.64-11.33 6.73a59.12 59.12 0 0 0-9.12 6.17 59.33 59.33 0 0 1-9.64 6.25c-2.51 1.33-4.14.86-5.56-1.63a11.35 11.35 0 0 1-1.55-6.9c.16-1.58.48-3.15.71-4.73a4.92 4.92 0 0 1 3.31-4 59.8 59.8 0 0 1 12.32-3.82c4.32-.77 8.64-1.59 13-2.28 1.57-.25 3.18-.21 4.78-.31z" class="cls-10" transform="translate(-283.42 -109.05)"/><path d="M559.94 316a150.7 150.7 0 0 0 24.9-20.51c4-4 8.72-5 14.07-3.83a9.94 9.94 0 0 1 5.82 3.57c3.33 4.31 7.34 8 11 12a62.21 62.21 0 0 0 10.58 9.33 27.29 27.29 0 0 1 5.3 4.44c-.79.55-1.2 0-1.64-.26-2.14-1.07-4.25-2.19-6.38-3.3a37.61 37.61 0 0 1-10.5-7.83 50 50 0 0 0-6.81-6 20.42 20.42 0 0 0-10.95-4.38 11.3 11.3 0 0 0-7.07 1.75 66.91 66.91 0 0 0-7.88 5.45 43.41 43.41 0 0 1-12.52 7.36 69.79 69.79 0 0 1-7.11 2.78c-.3-.12-.68-.13-.81-.57zM572 353.85a6.78 6.78 0 1 1-6.69-7 6.78 6.78 0 0 1 6.69 7zm-22.61 19.77l-3.52-.5c-1.2-1.22-2.92-1.34-4.34-2.1-.39-.22-.75 0-1 .33s-.8.95-1.2 1.42a1.26 1.26 0 0 1-.75-.84 3 3 0 0 0-3.56-2c-3.8-3.61-8-6.76-12-10.19l-3.76-3.3h1.19c1.65 1 3.32 1.89 4.94 2.9a1.15 1.15 0 0 0 1.8-.35c1.22-1.56 2.51-3 3.79-4.58a3 3 0 0 1 1.13 1.67 35.55 35.55 0 0 0 16.47 17.07 8.09 8.09 0 0 1 .81.47zM631 353.74a6.41 6.41 0 0 1-6.43 6.37 6.42 6.42 0 1 1 6.43-6.37zm20-66.15a80.18 80.18 0 0 1 1.56 10.47c.22 1.9.36 3.82.44 5.74.17 4.09-1.93 7.08-6.05 8.59-.35-3.09-.51-6.2-1.11-9.21s-.28-5.49 1.75-8c1.73-2.11 2.49-4.9 3.41-7.59zm-8 88.97a.63.63 0 0 0-.76-.49 7.38 7.38 0 0 1 2.54-1.26 24.29 24.29 0 0 0 13.86-14.71c.1-.29.21-.59.4-1.09a26.68 26.68 0 0 1 7.9 5.28c-.15 1.18-1.17 1.65-1.95 2.26-1.73 1.37-3.55 2.63-5.34 3.94a5 5 0 0 0-2 .78 42.4 42.4 0 0 1-11.65 4.12 9.76 9.76 0 0 0-3 1.17zm-103.25-67.22a3.84 3.84 0 0 1-2.09-.71c-1.92-1.12-2-1.78-1.31-3.92a45.88 45.88 0 0 0 2.19-13.71v-2.66c.64-.33.76.32 1 .65 1.51 2 3 3.92 4.49 5.92s1.57 3.07-.07 4.9a15.62 15.62 0 0 0-4.21 9.53z" class="cls-14" transform="translate(-283.42 -109.05)"/><path d="M541.2 327.08c-1.82.41-2.54 2.28-4 3.15-.53-.35 0-1.13-.26-1.06-1.68.42-.65-.8-.82-1.27-.58 0-.64.62-1 .92s-.49.47-.67 0a2.47 2.47 0 0 1 0-.72 2.7 2.7 0 0 0 1.29-1.88c-.83.56-1.3 1.05-1.38 1.8-.25-.06-.76.45-.71-.08a3.92 3.92 0 0 1 1.33-2.19c.62-.64 1.21-1.23 2.24-.72.21.11.66-.38 1-.47s.41.29.43.59l-.2.31.34-.17c.36 0 1.11-.14 1 .11-.53 1.38 1.06 1 1.29 1.71zm108.97 1.47c.24-.7-.6-.85-.75-1.59 2.47.35 5 .07 6.65 2.51-.7.95-2.1-.14-2.78 1-.12.21-.41-.33-.62-.51-.75-.64-1.24-1.74-2.53-1.43z" class="cls-4" transform="translate(-283.42 -109.05)"/><path d="M650.14 328.52c.54.85 1.62 1.28 1.89 2.31-.38.61-1.37-.94-1.52.58 0 .56-.61 0-.83-.22a11.64 11.64 0 0 0-4.6-2.85c1.3-.69 2.13.31 3.08.28a3.29 3.29 0 0 0 1.9 1.3 3.07 3.07 0 0 0-1.74-1.47c-.21-.4-.72-.6-.76-1.26 1.05.18 1.74 1 2.61 1.36z" class="cls-4" transform="translate(-283.42 -109.05)"/><path d="M520.47 356.41h-1.19c-1.59-1.21-3.55-2-4.36-4.05 1.05-.2 1.41.79 2.05 1.24 1.22.87 2.34 1.87 3.5 2.81zM559.94 316c.13.4.51.41.82.53a15.63 15.63 0 0 1-4.69 1.62 12.46 12.46 0 0 1 3.87-2.15z" class="cls-3" transform="translate(-283.42 -109.05)"/><path d="M546.33 329.89l-4.76 3.61c.9-2.06 2.62-3.1 4.41-4.05zm-5.13-2.8h1.92L538.9 331c0-1.14.74-1.7 1.34-2.36.41-.44 1.08-.72 1-1.51zm99.13 4.53c2.18-.07 3.56 1.25 4.79 2.81-1.82-.55-3.12-2.05-4.79-2.81zm-99.86.01a5.26 5.26 0 0 1 3.81-3.43c-1.05 1.39-2.58 2.23-3.81 3.43zm107.75.76c-1.51-1-2.82-2.29-4.85-3.08a4.84 4.84 0 0 1 4.92 3zm-7.59 1.34a3.52 3.52 0 0 1 2.81 2.44l-3-2zm4.73-1.36L642 330.3c2-.2 2.95.37 3.41 2.07zm-5.36.84a2.46 2.46 0 0 1-2.81-.71c1.17-.21 1.73.29 2.81.71z" class="cls-4" transform="translate(-283.42 -109.05)"/><path d="M645.36 332.37c.77-.1 1.3.11 1.34 1.07-.76 0-1-.65-1.34-1.07zm-102.24-5.28c0-.06.07-.18.09-.18s.12.09-.09.18zm105.17 5.24l.17.23-.24-.17z" class="cls-4" transform="translate(-283.42 -109.05)"/><path d="M548.39 229.58l-3.62 4.69c-.83-3.91-.83-3.91 3.62-4.69zm100.38 7.27a95.27 95.27 0 0 0-6.75-7.73c2.48.21 4.75 1.22 7.13 1.79.92.21 1.08.78.84 1.61-.42 1.48-.81 2.89-1.22 4.33zm-6.77-7.72a.39.39 0 0 1-.26-.36c-.06.23.03.34.26.36z" class="cls-14" transform="translate(-283.42 -109.05)"/><path d="M643 376.56a9.76 9.76 0 0 1 3.06-1.17 42.4 42.4 0 0 0 11.62-4.12 5 5 0 0 1 2-.78c2.23 1 4.57 1.86 6.71 3.1 3.12 1.8 3.39 2.34 2.63 5.74-1.73 2.72-2.07 5.85-2.46 8.93-.55 4.2-1 8.41-1.32 12.64-.6 8.61-1 17.23-.74 25.88a117.85 117.85 0 0 0 4.16 27.22 3 3 0 0 1-1 3.49 31.48 31.48 0 0 0-6.54 9.38 66.46 66.46 0 0 1-9.37 14.42c-2.25-.7-4.59-.37-6.88-.58-6.38-.58-12.76-.42-19.15-.44a24.7 24.7 0 0 0-3.31.31c-3.67.48-6.93 0-9.82-3a212.9 212.9 0 0 1-14.48-16.85 28.32 28.32 0 0 0-3.55-4.19c-1.31-1.12-2.28-1.13-3.19.28-4 6.24-9.46 11.4-13.31 17.77-.94 1.56-2.52 2.65-3.53 4.2a2.62 2.62 0 0 1-2.32 1c-4.13.17-8.21.87-12.31 1.29-2.29.23-4.61.44-6.88.71a86.92 86.92 0 0 1-8.83.37c-4.76-6-9.53-12-13.2-18.78-2-3.75-4.48-7.21-8.31-9.37-1-.57-.72-1.31-.65-2.05.36-3.73.83-7.46 1.13-11.2.74-9 1.59-18 1.27-27-.1-2.95-.38-5.89-.5-8.84a47.87 47.87 0 0 1 .3-7.18 23.06 23.06 0 0 0-2.83-14.54c-.45-1.29-1.45-2.26-2.12-3.55 5.12-3.42 10.39-6.59 15.72-9.67a3 3 0 0 1 3.56 2 1.26 1.26 0 0 0 .75.84 5.94 5.94 0 0 0 2.28 2.14 58.67 58.67 0 0 0 15.52 8.88 102.63 102.63 0 0 0 26.48 6.27 96.28 96.28 0 0 0 42.95-4.93 63.92 63.92 0 0 0 15.4-7.63c.39-.31.85-.5 1.06-.99z" class="cls-8" transform="translate(-283.42 -109.05)"/><path d="M683.27 517.21c-.65.75-.94 1.78-1.81 2.36-.73-.5-.53.13-.57.47-.61.2-.77.7-1 1.24-.75 2-.34 3.89.18 5.84a55.33 55.33 0 0 1 2.25 13.58c-6.16 5.68-13.78 6.17-20.16.81a39.61 39.61 0 0 1-13.91-23.45 64 64 0 0 1-1.18-8.3c-.28-4.91 1.26-7.7 5.66-9.82a59.14 59.14 0 0 1 9.11-3.61c7.54-2.22 14-.11 19.77 4.88a2.63 2.63 0 0 1 .72 2.38c0 3.92-.08 7.84.26 11.75.07.66-.27 1.53.68 1.87zM674 473c2.06 6.49 4.14 12.5 6.48 18.57a27 27 0 0 1-14.47.6c-1.81-.45-2.26-1.46-1.67-3.26a7.74 7.74 0 0 1 .79-1.73C668 482.62 670.86 478 674 473z" class="cls-11" transform="translate(-283.42 -109.05)"/><path d="M682.34 540.72a55.33 55.33 0 0 0-2.25-13.58c-.52-1.95-.93-3.85-.18-5.84.2-.54.36-1 1-1.24a16.9 16.9 0 0 0 .4 8.89c.88 3.36 1.35 6.82 2 10.25a8.4 8.4 0 0 1 0 1.66z" class="cls-2" transform="translate(-283.42 -109.05)"/><path d="M741 509.93h-11.8a38 38 0 0 1 11.8 0zm-12.11 0c-.44.63-1.11.52-1.74.52h-5a30 30 0 0 1 6.74-.52zm-6.76.49c-.66.84-1.59.46-2.41.49h-3.53a22.78 22.78 0 0 1 5.94-.49zM715 511c-1.73.91-3.58.25-5.36.39A17.54 17.54 0 0 1 715 511zm-6.29.44c-1.22.89-2.59.29-3.88.41a8.51 8.51 0 0 1 3.88-.41zm-11.04 1.44c-.85.81-1.9.33-2.86.43a5.5 5.5 0 0 1 2.86-.43zm3.33-.49c-.87.83-1.94.34-2.93.42a5.77 5.77 0 0 1 2.93-.42zm3.39-.47c-.89.81-2 .34-3 .41a5.77 5.77 0 0 1 3-.41zm-10.08 1.47c-.71.71-1.6.33-2.42.39a3.76 3.76 0 0 1 2.42-.39zm49.56-2.99c-.85 0-1.77.36-2.5-.41a3.83 3.83 0 0 1 2.5.41zm-52.44 3.46c-.53.64-1.26.38-1.92.41a2.43 2.43 0 0 1 1.92-.41zm56.15-2.46c-.52 0-1.07.09-1.41-.45a1.52 1.52 0 0 1 1.41.45zm-1.73-.53c-.57 0-1.17.18-1.6-.39a1.92 1.92 0 0 1 1.6.39zM689 514.36a1.09 1.09 0 0 1-1.12.35 1.11 1.11 0 0 1 1.12-.35zm-5.24 2.43l-.43.37a.38.38 0 0 1 .43-.37zm.43-.34a.52.52 0 0 1-.31.25.25.25 0 0 1 .31-.25zM509.92 533c-.37-1.4-.73-2.8-1.1-4.21a68.29 68.29 0 0 1 .71-16.47 17.34 17.34 0 0 1 6.16-11.32c3.49-2.84 7.4-3.77 11.67-2.24a36.68 36.68 0 0 1 12.16 7.07c4.18 3.72 5.74 8.36 4.26 13.85a132.93 132.93 0 0 1-6.46 18.54c-1.31 3-3.37 5.24-6.81 5.78a13.35 13.35 0 0 1-5.69-.46 44 44 0 0 1-7-2.57 16.2 16.2 0 0 1-7.9-7.97zm-.45-41.21a143.44 143.44 0 0 0 7.72-18.54c2.8 4 6.14 6.89 9.14 10.14a5.25 5.25 0 0 1 1.72 4.06 4.67 4.67 0 0 1-3.47 4.38 20.29 20.29 0 0 1-5.41.8 64.22 64.22 0 0 1-9.7-.84z" class="cls-11" transform="translate(-283.42 -109.05)"/><path d="M680.89 520c0-.34-.16-1 .57-.47z" class="cls-2" transform="translate(-283.42 -109.05)"/><path d="M541.59 374.91a5.94 5.94 0 0 1-2.28-2.14c.4-.47.79-1 1.2-1.42s.63-.55 1-.33c1.42.76 3.14.88 4.34 2.1z" class="cls-12" transform="translate(-283.42 -109.05)"/><path d="M534.43 328c.08-.75.55-1.24 1.38-1.8a2.7 2.7 0 0 1-1.29 1.88zm4.46-2.73l-.34.17.2-.31zm109.43 3.18a3.07 3.07 0 0 1 1.74 1.47 3.29 3.29 0 0 1-1.9-1.3z" class="cls-11" transform="translate(-283.42 -109.05)"/></svg>